<?xml version="1.0" standalone="no"?>
<!DOCTYPE svg PUBLIC "-//W3C//DTD SVG 20010904//EN"
 "http://www.w3.org/TR/2001/REC-SVG-20010904/DTD/svg10.dtd">
<svg version="1.0" xmlns="http://www.w3.org/2000/svg"
 width="300.000000pt" height="425.000000pt" viewBox="0 0 300.000000 425.000000"
 preserveAspectRatio="xMidYMid meet">
<metadata>
Created by potrace 1.10, written by Peter Selinger 2001-2011
</metadata>
<g transform="translate(0.000000,425.000000) scale(0.100000,-0.100000)"
fill="#000000" stroke="none">
<path d="M43 4191 c10 -88 34 -130 61 -103 4 4 13 7 19 7 7 1 10 7 8 15 -2 8
-4 43 -4 78 -1 51 -4 62 -17 60 -12 -3 -14 -17 -12 -81 2 -48 -1 -77 -8 -77
-5 0 -11 10 -11 23 -1 12 -3 36 -4 52 -2 17 -3 42 -4 58 -1 18 -6 27 -17 27
-14 0 -16 -8 -11 -59z"/>
<path d="M148 4232 c-3 -10 -4 -31 -3 -48 2 -16 3 -35 4 -41 1 -7 6 -13 12
-13 7 0 9 10 7 25 -3 14 -1 28 4 31 5 4 7 17 3 31 -3 15 -2 22 4 19 5 -4 12
-2 16 4 3 6 -4 10 -18 10 -15 0 -26 -7 -29 -18z"/>
<path d="M300 4243 c-1 -5 -5 -28 -9 -53 -7 -33 -6 -49 5 -64 14 -20 18 -16
15 14 -1 8 5 37 13 63 13 45 13 47 -5 47 -10 0 -19 -3 -19 -7z"/>
<path d="M375 4241 c6 -11 4 -13 -8 -8 -10 4 -18 1 -19 -6 -1 -12 -4 -25 -8
-42 -2 -5 -4 -26 -4 -45 -1 -27 4 -36 19 -41 11 -3 19 -12 17 -20 -7 -27 40
26 64 74 13 26 28 47 33 47 5 0 11 -25 13 -55 1 -30 0 -55 -3 -55 -4 0 -6 -28
-5 -62 1 -35 -2 -75 -6 -90 -3 -16 -3 -28 1 -28 4 0 7 -13 7 -29 0 -22 -4 -29
-18 -28 -12 1 -14 5 -8 11 6 6 10 14 10 18 0 5 -13 -4 -28 -19 -26 -27 -29
-43 -15 -83 3 -8 7 -28 9 -45 9 -77 15 -98 27 -86 8 8 8 14 -1 23 -9 9 -7 15
6 25 16 14 16 14 0 9 -14 -4 -18 0 -17 17 0 12 3 16 6 10 2 -7 9 -13 14 -13 6
0 6 8 -1 19 -7 14 -6 21 3 24 6 3 3 6 -8 6 -15 1 -16 4 -7 13 7 7 12 22 12 35
0 39 20 25 21 -14 1 -64 8 -137 15 -153 5 -12 8 -11 14 5 9 20 9 20 9 0 1 -34
53 -185 63 -185 6 0 7 8 3 18 -4 9 -18 55 -33 102 -14 47 -32 91 -41 98 -14
12 -14 13 4 8 19 -6 19 -5 2 8 -14 10 -15 15 -5 19 10 4 10 6 1 6 -7 1 -13 11
-12 24 0 21 1 21 9 2 8 -19 9 -19 9 2 1 12 -6 23 -16 26 -17 4 -17 5 0 6 10 0
16 5 12 10 -18 30 -2 377 20 432 5 14 -1 16 -37 15 -24 -1 -49 -5 -55 -9 -8
-5 -13 -3 -13 4 0 21 -11 3 -16 -27 -7 -33 -8 -39 -19 -76 -8 -32 -11 -33 -31
-13 -14 13 -11 19 7 17 13 -2 19 92 8 102 -9 8 -10 7 -4 -3z"/>
<path d="M559 4233 c0 -10 -2 -27 -4 -38 -32 -164 -22 -429 20 -580 8 -27 17
-63 20 -80 11 -51 22 -9 29 114 4 62 11 121 15 130 5 9 12 46 15 81 4 36 8 72
11 80 2 8 6 26 9 40 2 14 13 47 23 74 17 45 17 49 2 59 -15 10 -15 15 2 65 25
74 23 78 -7 13 -44 -98 -102 -311 -84 -311 8 0 4 -56 -6 -80 -5 -11 -9 -6 -15
15 -8 28 5 179 19 215 3 8 7 20 7 25 1 6 7 21 12 35 8 18 7 27 -1 32 -7 5 -6
8 5 8 9 0 23 22 37 60 12 35 17 60 11 60 -6 0 -16 -13 -22 -30 -6 -16 -18 -30
-27 -30 -13 0 -13 2 0 10 8 5 11 12 7 16 -4 4 -2 13 5 21 8 11 7 12 -5 8 -14
-6 -27 -34 -27 -62 0 -6 8 -9 20 -6 12 3 20 0 20 -6 0 -7 -4 -10 -9 -7 -5 4
-17 3 -26 0 -13 -5 -14 -8 -3 -15 10 -7 9 -9 -4 -9 -22 0 -31 30 -22 75 5 28
3 35 -10 35 -9 0 -16 -8 -17 -17z"/>
<path d="M726 4191 c-16 -33 -25 -64 -21 -71 6 -10 10 -9 17 4 5 8 8 19 8 22
-1 4 3 10 9 13 6 4 12 16 14 26 1 11 6 26 11 33 5 8 4 18 -1 23 -6 6 -20 -14
-37 -50z"/>
<path d="M920 4230 c-10 -15 -16 -16 -23 -7 -5 7 -6 4 -2 -10 4 -15 -2 -30
-20 -49 -27 -29 -30 -40 -15 -47 6 -3 5 -4 -2 -3 -13 3 -14 13 -3 56 6 23 6
24 -6 5 -7 -11 -15 -22 -18 -25 -5 -4 -42 -76 -46 -90 -1 -3 -16 -34 -33 -70
-17 -36 -37 -82 -46 -102 -8 -21 -20 -38 -25 -38 -6 0 -11 -17 -10 -37 l1 -38
14 35 c19 44 96 160 107 160 9 0 4 -10 -25 -53 -25 -34 -20 -51 8 -28 30 24
135 192 127 204 -3 6 -2 8 3 5 5 -3 15 0 22 8 7 8 8 14 3 14 -6 0 -7 8 -4 17
5 12 8 13 11 4 3 -8 25 10 58 45 29 33 49 61 43 63 -6 2 -15 -3 -20 -10 -8
-12 -11 -12 -19 1 -8 12 -10 13 -10 1 0 -8 -3 -11 -7 -8 -3 4 -19 -11 -36 -34
-16 -22 -32 -37 -36 -33 -3 4 0 9 7 11 6 3 12 10 12 18 0 7 7 18 15 25 8 7 15
16 15 21 0 16 -25 9 -40 -11z m-73 -200 c-6 -11 -16 -20 -20 -20 -5 0 -7 -7
-3 -15 3 -8 1 -15 -4 -15 -6 0 -10 5 -10 11 0 18 33 68 42 63 4 -3 2 -14 -5
-24z"/>
<path d="M1092 4236 c-9 -5 -22 -14 -28 -20 -6 -6 -28 -27 -50 -47 -38 -35
-111 -119 -129 -149 -13 -21 70 41 140 106 33 30 67 62 76 70 9 8 24 12 33 8
9 -3 16 -1 16 6 0 6 -4 8 -10 5 -5 -3 -10 -1 -10 4 0 6 5 11 10 11 6 0 10 4
10 9 0 12 -34 10 -58 -3z"/>
<path d="M1213 4233 c-3 -7 -14 -15 -24 -18 -11 -4 -30 -16 -42 -28 -12 -12
-36 -34 -53 -48 -17 -14 -37 -35 -43 -47 -6 -12 -18 -22 -25 -22 -18 0 -93
-105 -134 -185 -16 -33 -39 -71 -51 -85 l-21 -25 15 44 c19 55 19 86 0 46 -18
-38 -61 -135 -68 -155 -5 -13 -6 -13 -7 0 -1 8 -16 -23 -35 -70 -37 -94 -47
-97 -15 -5 11 32 20 61 20 64 -1 14 -21 -31 -59 -132 -48 -128 -63 -179 -50
-172 5 4 9 0 9 -7 1 -7 9 1 18 19 14 25 20 30 34 22 31 -17 78 48 48 66 -5 3
-10 -3 -10 -13 0 -11 -9 -22 -19 -25 -18 -4 -18 -2 -5 28 7 18 10 35 7 39 -4
3 -1 6 5 6 7 0 12 6 12 14 0 7 22 58 50 112 30 60 49 90 50 77 0 -13 4 -23 9
-23 6 0 6 12 1 30 -5 16 -5 28 -2 27 7 -2 52 39 52 47 0 8 61 69 65 64 2 -2
-6 -20 -18 -39 -13 -19 -36 -56 -51 -84 l-27 -50 31 35 c17 19 47 59 67 88 19
28 39 54 44 57 4 3 4 17 -1 31 -6 14 -6 23 -1 20 5 -3 17 7 27 22 21 32 45 57
55 57 4 0 11 3 15 8 4 4 16 7 26 7 10 0 18 5 18 11 0 8 5 8 15 -1 12 -10 15
-10 15 2 0 17 36 52 63 61 14 5 16 3 8 -12 -6 -10 -7 -22 -3 -26 4 -5 1 -5 -6
-1 -7 4 -9 13 -5 19 4 7 0 6 -10 -2 -9 -7 -15 -17 -12 -21 3 -5 1 -11 -5 -15
-5 -3 -7 -17 -4 -30 3 -12 1 -26 -5 -29 -6 -4 -11 -31 -11 -59 1 -48 2 -50 15
-33 8 11 15 40 15 65 0 56 9 93 21 85 5 -3 9 -1 9 3 0 5 10 19 23 33 23 25 41
59 39 72 -1 4 5 5 13 2 11 -4 15 1 15 16 0 19 2 20 15 10 10 -9 15 -9 15 -1 0
6 3 10 8 9 4 -2 21 9 37 24 16 15 32 24 35 19 3 -5 11 -3 18 5 11 12 9 14 -12
14 -14 0 -30 -8 -35 -17 -6 -10 -11 -13 -11 -8 0 6 -7 -1 -15 -15 -16 -28 -21
-9 -5 20 8 15 6 18 -8 15 -9 -2 -20 -4 -24 -4 -5 -1 -8 -7 -8 -14 0 -7 -17
-21 -37 -31 -70 -33 -231 -144 -244 -168 -15 -29 -109 -123 -109 -109 0 6 23
33 51 61 27 27 48 54 45 59 -6 9 107 121 122 121 10 0 138 72 150 85 4 3 -15
5 -42 4 -28 -2 -50 -8 -53 -16z m-557 -774 c-14 -35 -25 -59 -26 -52 0 17 41
125 46 120 2 -2 -7 -33 -20 -68z"/>
<path d="M1865 4242 c11 -11 -17 -30 -37 -25 -17 5 -19 3 -13 -16 5 -15 2 -21
-10 -21 -9 0 -14 -4 -11 -9 3 -5 -1 -11 -9 -15 -17 -6 -21 -36 -5 -36 6 0 15
-10 20 -22 5 -13 9 -17 9 -9 1 8 -7 23 -16 34 -17 19 -17 19 7 12 14 -4 31
-14 37 -23 7 -8 16 -12 20 -9 3 4 -7 21 -23 39 -28 29 -28 31 -6 25 19 -4 21
-3 11 9 -9 11 -7 14 10 14 12 0 24 -7 27 -15 8 -20 24 -19 24 1 0 9 -9 18 -20
21 -11 3 -17 9 -14 14 3 5 10 6 16 3 7 -4 8 -2 4 4 -7 11 32 11 82 -1 13 -4
22 -1 22 6 0 7 7 5 16 -5 15 -15 15 -19 -5 -47 -12 -17 -19 -31 -15 -31 4 0
-1 -7 -12 -16 -19 -15 -19 -16 1 -9 20 6 20 6 0 -13 -11 -11 -24 -17 -29 -14
-5 3 -6 0 -2 -6 3 -6 -2 -19 -12 -29 -19 -18 -36 -52 -34 -65 1 -5 -2 -8 -7
-8 -5 0 -18 -17 -29 -37 -10 -21 -29 -55 -40 -75 -12 -21 -18 -38 -13 -38 13
0 52 56 44 64 -3 3 -1 6 5 6 7 0 12 -6 12 -12 1 -7 19 7 40 31 34 37 40 40 40
22 0 -48 -70 -159 -173 -274 -56 -63 -67 -80 -57 -90 10 -9 11 -9 6 0 -4 7 2
13 16 15 12 2 28 14 35 28 10 20 13 21 13 6 0 -15 3 -16 15 -6 12 10 15 10 15
-1 0 -11 2 -11 10 1 6 9 5 17 -2 21 -16 10 1 31 19 25 13 -5 14 -1 9 24 -3 17
-2 29 3 26 4 -3 14 7 20 21 9 19 15 23 20 14 6 -8 13 3 22 33 9 30 18 45 26
42 8 -4 13 3 13 16 0 50 19 -3 29 -82 21 -155 21 -166 13 -146 -13 30 -24 2
-12 -29 8 -20 7 -26 -2 -23 -7 3 -15 15 -18 29 -4 17 -7 20 -12 9 -3 -9 7 -30
23 -50 16 -19 24 -37 19 -40 -5 -3 -7 -16 -3 -29 5 -21 7 -19 19 15 37 107 21
326 -32 428 l-25 48 21 23 c11 12 40 28 63 36 23 7 50 24 60 36 14 17 25 21
44 17 16 -4 28 -2 34 7 7 12 11 11 25 -2 15 -16 15 -17 -2 -23 -21 -7 -120
-203 -109 -214 4 -4 13 2 22 13 8 11 19 19 24 17 20 -5 49 20 75 63 25 43 44
58 44 34 0 -5 -11 -26 -25 -46 -50 -74 -10 -44 80 61 22 25 72 56 61 37 -4 -6
-2 -11 3 -11 6 0 11 7 11 15 0 8 3 15 8 15 4 0 20 12 35 26 19 17 43 28 73 31
24 2 44 2 44 0 0 -3 -15 -14 -32 -26 -30 -19 -31 -21 -10 -21 l23 0 -26 -37
c-18 -27 -21 -39 -13 -42 7 -2 17 -9 21 -15 5 -6 7 1 4 17 -2 15 0 27 5 27 5
0 6 5 3 10 -3 6 -1 10 5 10 6 0 9 4 5 10 -7 12 30 50 49 50 7 0 19 7 26 15 7
9 20 13 28 10 28 -11 172 52 172 76 0 5 8 9 18 9 29 1 87 36 72 45 -7 4 -16 2
-21 -6 -8 -12 -11 -12 -19 1 -6 10 -10 11 -10 3 0 -7 -4 -13 -10 -13 -9 0 -98
-53 -153 -92 -16 -11 -31 -18 -33 -15 -6 5 97 83 131 99 38 17 30 28 -21 28
-30 0 -43 -4 -38 -11 4 -8 0 -9 -15 -4 -14 4 -23 1 -27 -9 -3 -9 -10 -16 -15
-16 -6 0 -23 -10 -38 -21 -17 -13 -34 -18 -42 -14 -8 5 -10 4 -5 -4 8 -13 -16
-41 -36 -41 -10 0 -10 2 1 9 17 11 8 27 -19 34 -18 4 -19 3 -9 -9 6 -8 8 -18
4 -22 -4 -4 -10 -2 -12 5 -5 14 -62 7 -78 -10 -7 -7 -6 -8 3 -3 7 4 12 1 12
-8 0 -21 -20 -20 -35 1 -17 23 -2 53 25 53 11 0 20 5 20 10 0 6 6 10 13 10 8
0 19 11 25 25 13 28 10 30 -18 13 -15 -10 -25 -10 -38 -2 -14 9 -21 7 -39 -13
-13 -13 -23 -28 -23 -34 0 -5 -7 -9 -15 -9 -22 0 -1 -39 27 -49 20 -7 20 -8
-5 -37 -14 -16 -28 -26 -32 -23 -3 4 0 13 7 21 21 23 21 40 -1 33 -16 -5 -18
-2 -14 15 4 16 2 19 -11 14 -19 -7 -20 -23 -1 -47 7 -11 11 -25 8 -33 -9 -23
-21 -16 -18 11 3 36 -9 39 -39 8 -17 -17 -23 -30 -17 -37 6 -7 6 -17 1 -26 -8
-12 -10 -11 -10 5 0 16 -2 17 -10 5 -5 -8 -12 -11 -16 -8 -9 10 39 107 54 108
6 0 12 6 12 13 0 7 9 18 20 25 12 7 18 17 15 22 -3 6 0 10 8 10 8 0 22 9 32
20 18 20 17 20 -21 20 -22 0 -45 -5 -52 -12 -9 -9 -12 -9 -12 1 0 7 -4 10 -10
6 -15 -9 0 -33 23 -39 18 -3 17 -4 -3 -3 -15 1 -29 11 -35 25 -11 26 -27 28
-45 7 -7 -9 -15 -14 -17 -11 -2 2 -19 -11 -36 -28 -18 -18 -40 -36 -49 -39
-10 -4 -18 -13 -18 -21 0 -8 -15 -20 -34 -27 -22 -8 -32 -17 -29 -26 3 -8 2
-13 -3 -11 -5 1 -19 -3 -31 -10 -28 -15 -30 -5 -4 22 10 12 26 43 35 70 15 44
15 51 1 72 -8 13 -19 24 -22 24 -4 0 -2 -5 5 -12 23 -23 12 -31 -12 -9 -20 19
-33 22 -85 20 -33 -1 -59 -5 -56 -7z m385 -32 c0 -11 -7 -20 -16 -20 -9 0 -12
-5 -8 -12 5 -8 2 -9 -9 -5 -12 4 -17 1 -17 -10 0 -12 -3 -14 -11 -6 -15 15 7
57 26 49 7 -2 16 2 19 10 8 20 16 17 16 -6z"/>
<path d="M2119 4224 c-13 -14 -32 -33 -41 -42 -10 -9 -18 -24 -18 -34 0 -10
-4 -18 -10 -18 -5 0 -10 -4 -10 -9 0 -5 9 -7 20 -4 11 3 18 9 15 13 -3 5 17
28 45 52 50 43 63 68 36 68 -8 0 -24 -12 -37 -26z"/>
<path d="M2594 4235 c-3 -8 -14 -17 -24 -20 -22 -7 -33 -32 -14 -32 7 0 11 4
8 9 -3 5 7 6 23 2 15 -4 25 -3 21 1 -9 9 9 26 42 42 24 11 24 12 -13 12 -24 1
-40 -4 -43 -14z"/>
<path d="M2888 4209 c-25 -25 -38 -48 -38 -66 0 -29 -61 -94 -128 -137 -20
-13 -57 -42 -81 -65 -24 -22 -47 -41 -51 -41 -14 0 -46 -64 -42 -83 3 -15 8
-13 28 15 14 18 27 32 29 31 13 -7 25 -2 25 10 0 8 9 18 19 23 11 5 39 27 63
49 24 23 52 47 64 55 48 34 144 125 144 137 0 7 -9 13 -20 13 -11 0 -20 -7
-20 -15 0 -8 -4 -15 -10 -15 -27 0 30 69 58 70 13 0 42 24 42 34 0 3 -8 7 -17
7 -10 1 -4 5 12 9 l30 8 -35 -1 c-27 0 -43 -8 -72 -38z"/>
<path d="M1667 4173 c6 -16 5 -15 38 -3 26 10 27 9 20 -17 -4 -16 -8 -33 -8
-40 0 -6 -7 -9 -16 -5 -14 4 -13 2 2 -15 9 -11 17 -24 17 -29 0 -5 -5 -2 -10
6 -9 13 -10 13 -10 -1 0 -8 -15 -33 -34 -55 -45 -53 -69 -101 -51 -101 7 0 11
6 8 14 -3 7 -1 13 3 13 5 0 20 18 34 40 13 22 28 40 32 40 11 0 6 -23 -7 -33
-6 -5 -4 -7 5 -5 8 3 20 20 27 39 l12 34 2 -45 c5 -100 4 -146 -5 -157 -5 -8
-4 -13 3 -13 16 0 14 -40 -3 -46 -9 -3 -13 -18 -12 -39 1 -18 -2 -31 -6 -29
-5 3 -8 -1 -8 -8 0 -10 -2 -11 -8 0 -12 18 -34 7 -54 -28 -14 -25 -14 -28 -1
-23 12 5 14 1 8 -18 -4 -13 -4 -21 0 -17 15 15 35 -13 28 -40 -14 -58 17 -6
56 92 47 120 61 230 42 330 -13 68 -9 80 13 39 8 -15 15 -21 16 -14 0 8 -12
27 -26 42 -18 19 -26 39 -27 67 l-2 39 -41 -1 c-29 -1 -40 -5 -37 -13z"/>
<path d="M2742 4122 c-18 -10 -30 -21 -26 -24 9 -10 -87 -98 -107 -98 -17 0
-41 -22 -38 -36 1 -5 1 -16 0 -24 -1 -13 -2 -13 -11 0 -8 12 -10 11 -10 -7 0
-20 -10 -28 -25 -20 -9 4 -36 -43 -30 -53 3 -6 -1 -10 -9 -10 -14 0 -20 -13
-19 -47 0 -6 -6 -9 -14 -6 -7 3 -13 2 -12 -3 1 -5 1 -19 0 -31 -1 -17 -5 -21
-18 -16 -11 4 -14 3 -9 -5 4 -7 3 -12 -1 -12 -13 0 -43 -56 -35 -65 4 -5 1 -5
-5 -1 -12 7 -15 3 -17 -26 -1 -7 -11 -24 -23 -38 -13 -14 -23 -29 -23 -33 0
-13 -156 -240 -179 -261 -11 -10 -17 -24 -14 -32 5 -13 8 -13 22 0 9 8 27 17
41 20 39 7 92 28 120 45 40 26 100 89 100 106 0 8 7 15 15 15 8 0 15 5 15 11
0 8 4 8 14 0 11 -9 20 -4 45 24 30 34 35 46 32 71 -1 7 13 11 36 9 21 -1 37
-6 36 -11 0 -5 -7 -36 -13 -69 -22 -111 -27 -154 -16 -165 5 -5 7 -10 3 -10
-4 0 1 -9 10 -20 10 -11 22 -20 28 -20 6 0 39 21 73 46 61 45 63 46 82 29 11
-10 20 -24 20 -32 0 -8 11 -25 24 -38 24 -24 25 -24 65 -7 22 9 44 25 48 35 5
10 8 -12 8 -57 -1 -70 0 -73 20 -65 11 5 28 12 38 15 9 4 17 13 17 21 0 12 -3
13 -14 4 -11 -9 -14 -1 -20 45 -6 50 -4 58 14 71 11 8 20 22 20 31 0 13 -5 12
-20 -8 l-20 -25 0 25 c0 14 9 42 20 63 26 48 26 65 0 42 -29 -26 -34 -14 -6
16 15 17 23 38 24 68 l2 43 -70 -95 c-39 -52 -70 -98 -70 -101 0 -13 25 -5 57
20 39 29 45 18 8 -16 -31 -30 -25 -37 11 -14 27 18 27 18 15 -4 -12 -22 -125
-105 -133 -96 -5 4 43 151 56 173 4 6 5 11 2 11 -3 0 -21 -25 -41 -55 -21 -30
-40 -55 -44 -55 -16 0 -4 51 18 77 13 15 37 43 53 61 51 59 29 56 -29 -5 -32
-32 -100 -89 -151 -126 l-93 -67 6 32 c3 18 7 45 9 61 3 15 7 35 10 45 3 9 7
29 10 45 3 15 8 37 11 48 5 13 2 25 -6 31 -11 7 -9 8 5 4 15 -5 17 -2 13 14
-3 12 -1 18 5 14 6 -4 8 1 3 15 -3 11 -2 21 3 21 5 0 15 20 21 44 15 62 15 71
-4 56 -8 -7 -15 -18 -15 -24 0 -6 -13 -30 -28 -53 -20 -30 -32 -39 -42 -33
-11 7 -11 11 -1 24 8 9 10 16 6 16 -4 0 3 9 16 20 13 10 20 19 15 20 -5 0 -2
8 6 18 9 9 19 28 23 42 5 17 -5 9 -32 -26 -118 -158 -408 -443 -429 -422 -2 2
17 29 41 58 43 52 88 122 184 288 27 46 48 72 56 68 9 -3 11 2 8 15 -3 10 0
20 6 20 6 1 16 3 21 4 6 1 13 3 17 4 4 0 -2 8 -13 16 -19 14 -19 14 2 9 14 -4
21 -1 21 10 0 9 -6 16 -14 16 -19 0 -16 13 6 30 11 7 18 17 15 22 -3 4 8 14
23 20 15 7 43 28 62 45 19 18 39 33 44 33 6 0 8 3 4 6 -3 3 10 20 29 36 33 29
65 78 70 106 1 6 2 12 1 12 -1 -1 -17 -9 -35 -18z m-237 -591 c-17 -33 -33
-46 -43 -36 -4 3 1 11 11 16 9 6 17 16 17 24 0 11 9 19 28 24 1 1 -4 -12 -13
-28z"/>
<path d="M1435 4096 c-28 -18 -57 -41 -64 -50 -7 -9 -18 -16 -23 -16 -6 0 -5
7 2 15 11 13 9 15 -9 12 -24 -4 -87 -81 -121 -147 -17 -34 -18 -40 -5 -40 9 0
19 10 24 23 11 28 90 107 108 107 7 0 13 3 13 8 0 4 12 15 25 25 l25 18 -12
-26 c-6 -14 -16 -25 -21 -25 -10 0 -57 -50 -57 -62 0 -3 8 -9 18 -11 16 -4 16
-5 0 -6 -10 0 -18 -8 -18 -16 0 -8 -5 -15 -12 -15 -6 0 -8 -3 -5 -6 3 -4 2
-16 -4 -27 -8 -14 -8 -18 0 -13 18 11 13 -5 -18 -61 -21 -39 -25 -53 -15 -53
8 0 14 7 14 15 0 21 20 19 21 -2 1 -10 5 0 9 22 l7 40 2 -42 c0 -23 6 -45 12
-49 7 -4 9 0 5 12 -12 42 -7 102 14 157 33 87 86 178 125 215 45 42 23 41 -40
-2z"/>
<path d="M2923 4053 c-100 -111 -133 -150 -133 -158 0 -4 -23 -36 -51 -71 -51
-64 -49 -85 5 -43 31 25 34 12 5 -25 -12 -15 -19 -30 -16 -33 6 -6 67 28 67
38 0 3 9 16 20 29 11 13 20 29 20 37 0 7 5 13 10 13 6 0 10 7 10 17 0 9 3 14
6 10 7 -7 44 29 44 43 0 6 5 10 11 10 20 0 79 67 79 90 0 12 -4 18 -10 15 -6
-4 -8 -11 -5 -16 4 -5 2 -9 -3 -9 -11 0 -91 -78 -86 -83 2 -1 -5 -8 -15 -14
-16 -10 -20 -9 -24 8 -4 13 0 22 11 27 21 7 81 73 82 88 0 6 11 20 25 32 14
13 25 33 25 47 0 14 -1 25 -3 25 -2 0 -35 -35 -74 -77z"/>
<path d="M208 4034 c-3 -5 -8 -37 -12 -72 -4 -35 -10 -71 -13 -80 -4 -15 -3
-15 7 -2 10 13 11 12 6 -3 -3 -10 -6 -23 -6 -28 0 -12 -53 -7 -62 6 -4 6 -8 1
-8 -9 0 -11 -3 -16 -7 -13 -6 6 -9 33 -12 90 -1 21 -48 67 -65 64 -6 -1 -10 4
-8 11 1 8 -2 11 -8 7 -6 -4 -9 -13 -6 -20 2 -7 -1 -18 -7 -24 -8 -8 -7 -11 3
-11 7 0 10 -3 7 -7 -4 -3 0 -17 8 -29 13 -20 13 -23 -3 -27 -16 -4 -16 -5 1
-6 20 -1 23 -17 5 -24 -7 -3 -3 -6 10 -6 23 -1 32 -21 10 -21 -8 -1 -5 -6 6
-15 10 -7 15 -19 11 -25 -4 -6 3 -19 14 -29 21 -18 29 -37 12 -27 -5 4 -7 -3
-4 -15 4 -13 8 -17 13 -9 5 8 9 7 14 -5 8 -23 8 -27 -4 -20 -14 9 -13 -8 2
-23 7 -7 9 -12 4 -12 -14 0 59 -126 127 -217 87 -118 222 -241 243 -221 3 3
-28 39 -68 79 -96 97 -154 171 -188 242 -16 31 -27 57 -25 57 2 0 -3 19 -11
43 -18 49 -54 182 -54 197 0 5 5 10 10 10 6 0 10 -11 10 -24 0 -14 7 -31 15
-40 8 -8 15 -19 15 -25 0 -6 4 -11 9 -11 5 0 7 -10 3 -22 -4 -16 -2 -19 8 -13
10 6 12 3 8 -13 -4 -15 0 -25 10 -32 15 -8 15 -11 2 -19 -13 -9 -13 -11 0 -16
9 -3 16 -20 17 -40 1 -19 7 -42 13 -52 10 -15 10 -14 6 9 -3 14 -8 34 -12 45
-3 10 1 7 10 -7 8 -14 15 -21 16 -16 0 12 -20 76 -31 99 -6 12 -5 17 3 17 8 0
26 -41 42 -95 16 -52 31 -93 34 -91 2 3 -1 20 -7 38 -5 18 -12 45 -13 59 -2
15 -9 33 -16 41 -6 8 -10 17 -7 19 4 4 -16 87 -44 179 -16 55 -21 160 -7 160
6 0 17 -13 23 -30 6 -16 7 -30 2 -30 -5 0 -9 -5 -9 -11 0 -5 5 -7 10 -4 6 4
10 -6 10 -23 0 -16 3 -32 7 -36 4 -3 8 -12 10 -19 31 -143 101 -303 178 -404
42 -56 76 -84 62 -50 -3 6 -22 53 -42 102 -20 50 -43 104 -51 120 -9 17 -21
69 -27 118 -6 48 -14 87 -18 87 -4 0 -12 -19 -17 -42 l-9 -43 -43 135 c-24 74
-44 138 -45 142 0 12 -15 21 -15 10 0 -21 -30 -13 -39 10 -4 12 -10 17 -13 12z"/>
<path d="M2710 3909 c-69 -67 -134 -128 -145 -135 -19 -14 -19 -14 4 -14 16 0
50 26 104 78 44 42 100 96 124 118 24 23 43 49 43 58 0 9 -1 16 -2 16 -2 0
-59 -55 -128 -121z"/>
<path d="M2348 4003 c-10 -2 -18 -8 -18 -12 0 -4 -9 -18 -20 -31 -29 -34 -25
-48 5 -16 14 15 25 31 25 37 0 5 7 9 15 9 8 0 15 5 15 10 0 6 -1 9 -2 9 -2 -1
-11 -3 -20 -6z"/>
<path d="M703 3976 c3 -8 3 -17 -1 -20 -3 -4 -7 -19 -9 -34 -2 -25 -2 -25 7
-5 5 12 10 30 12 40 2 10 8 21 13 25 6 4 2 8 -9 8 -11 0 -16 -5 -13 -14z"/>
<path d="M1572 3957 c16 -13 13 -19 -37 -73 -30 -32 -55 -62 -55 -65 0 -3 -12
-11 -26 -18 -17 -7 -24 -17 -20 -27 3 -8 2 -13 -3 -10 -10 7 -61 -16 -61 -27
0 -4 14 -1 30 8 17 9 30 13 30 9 0 -4 26 19 57 49 32 31 60 54 62 51 3 -3 -14
-23 -37 -45 -45 -44 -52 -55 -24 -40 9 5 26 12 37 16 12 4 15 9 8 13 -7 5 2
22 28 51 21 25 37 47 34 49 -2 3 -13 -6 -24 -19 -26 -30 -27 -16 -3 19 33 47
33 51 10 62 -20 10 -21 10 -6 -3z"/>
<path d="M2439 3914 c-26 -46 -29 -58 -18 -65 11 -8 9 -9 -6 -7 -16 2 -20 -3
-20 -23 0 -16 -4 -25 -10 -22 -6 2 -20 -13 -31 -34 -10 -21 -22 -39 -26 -41
-5 -2 -8 -13 -8 -23 0 -11 -4 -17 -10 -14 -9 6 -14 -8 -11 -27 0 -5 -3 -8 -9
-8 -5 0 -16 -13 -25 -30 -9 -16 -13 -30 -10 -30 4 0 -1 -7 -9 -16 -9 -8 -13
-20 -10 -26 4 -7 2 -8 -4 -4 -11 6 -14 0 -11 -20 0 -4 -4 -10 -11 -14 -6 -4
-12 -16 -13 -28 -2 -30 -22 -35 -22 -6 0 13 3 24 7 24 4 0 7 10 7 23 -1 12 6
42 15 66 19 50 19 54 7 47 -5 -3 -14 -27 -20 -52 -9 -34 -15 -44 -23 -36 -8 8
-8 15 -1 24 16 21 23 86 10 92 -7 2 -2 5 11 5 12 1 22 7 22 16 0 8 5 15 10 15
6 0 5 8 -2 19 -7 11 -16 17 -20 15 -5 -3 -6 -10 -3 -15 4 -5 1 -9 -5 -9 -6 0
-8 -6 -4 -12 4 -7 3 -10 -1 -5 -12 10 -58 -71 -51 -90 5 -11 2 -14 -10 -9 -12
5 -15 2 -10 -9 4 -11 2 -14 -6 -9 -8 5 -9 2 -5 -9 3 -9 2 -19 -4 -23 -6 -3 -8
-12 -5 -19 2 -7 -2 -16 -10 -19 -21 -8 -24 -8 -24 5 0 5 6 7 13 3 9 -6 9 -4
-1 8 -8 10 -9 17 -2 20 5 1 12 14 15 27 2 12 9 29 15 36 8 10 8 15 0 20 -8 5
-3 11 12 19 12 6 42 45 65 86 23 41 46 80 50 85 21 26 43 65 36 65 -4 0 1 6
12 13 10 8 14 17 8 20 -5 4 -23 -7 -38 -23 -15 -16 -32 -27 -36 -24 -5 3 -6
-1 -4 -8 3 -8 -3 -23 -14 -34 -34 -37 -72 -104 -59 -104 7 0 3 -8 -10 -18 -15
-12 -21 -24 -16 -35 4 -12 1 -17 -11 -17 -12 0 -15 -5 -10 -21 5 -16 4 -19 -5
-14 -9 5 -11 4 -6 -3 4 -7 3 -12 -3 -12 -6 0 -8 -7 -5 -15 4 -8 1 -15 -5 -15
-6 0 -8 -7 -4 -17 4 -10 2 -14 -4 -10 -7 5 -9 0 -6 -12 3 -10 0 -28 -6 -40 -9
-17 -9 -21 3 -21 8 0 16 5 18 11 5 16 70 18 85 3 25 -25 23 -70 -4 -101 -60
-68 -72 -113 -13 -52 32 34 273 420 296 476 8 17 18 34 23 37 5 3 12 18 15 32
4 15 14 33 21 41 8 8 15 23 15 34 0 36 -29 19 -61 -37z m-279 -369 c9 -11 10
-19 3 -26 -12 -12 -45 -1 -37 13 4 6 10 5 15 -3 7 -11 9 -10 9 3 0 9 -6 19
-12 21 -8 4 -9 6 -2 6 6 1 17 -6 24 -14z"/>
<path d="M1655 3950 c6 -10 -5 -64 -12 -57 -6 6 -61 -50 -75 -76 -6 -12 8 -3
30 21 45 46 53 45 22 -3 -11 -17 -17 -39 -14 -50 4 -15 3 -16 -4 -6 -6 8 -12
9 -16 3 -3 -5 1 -13 9 -16 16 -6 23 3 28 41 2 11 8 27 14 35 31 37 48 118 25
118 -7 0 -11 -4 -7 -10z"/>
<path d="M2330 3898 c-30 -34 -56 -65 -56 -70 -1 -4 -2 -16 -3 -25 -1 -16 -3
-16 -11 -3 -9 14 -15 7 -11 -14 1 -5 -2 -12 -7 -15 -13 -8 -25 -51 -15 -51 11
1 69 89 66 101 -2 5 4 9 12 9 8 0 21 15 30 33 8 17 26 45 40 61 14 16 25 31
25 33 0 12 -22 -6 -70 -59z"/>
<path d="M2983 3943 c-8 -24 -39 -53 -47 -46 -6 6 -10 -12 -7 -29 0 -5 -2 -7
-6 -7 -18 3 -33 -1 -31 -8 2 -7 -47 -65 -106 -126 -29 -31 -118 -178 -111
-185 9 -9 76 64 121 133 21 33 43 63 49 67 5 4 6 8 2 8 -8 0 8 19 81 95 23 24
42 49 42 55 0 5 7 10 15 10 9 0 15 9 15 25 0 29 -8 33 -17 8z"/>
<path d="M2974 3846 l-21 -22 22 -16 c22 -17 22 -16 22 23 0 21 0 39 -1 38 0
0 -10 -10 -22 -23z"/>
<path d="M1260 3831 c0 -7 -4 -10 -9 -6 -15 9 -44 -26 -32 -38 16 -16 13 -31
-3 -18 -15 13 -20 9 -35 -32 -9 -23 -7 -28 11 -38 16 -9 19 -8 12 2 -10 16
-13 48 -5 47 22 -2 33 7 51 43 12 23 19 44 16 47 -3 3 -6 0 -6 -7z"/>
<path d="M1 3785 c-1 -28 3 -55 8 -60 12 -14 52 -125 44 -125 -3 0 -15 7 -25
17 -25 23 -33 10 -15 -26 13 -26 13 -32 1 -42 -15 -12 -19 -39 -6 -39 4 0 13
5 18 10 17 17 37 -16 39 -63 1 -24 7 -53 14 -65 14 -27 46 -31 37 -4 -8 20 47
-41 71 -80 10 -16 21 -28 26 -28 5 0 2 12 -8 26 -9 14 -31 51 -47 83 -17 31
-40 70 -52 86 -12 17 -19 30 -17 30 2 0 -6 19 -18 43 -12 23 -17 42 -11 42 5
0 10 -4 10 -8 0 -5 31 -56 69 -114 71 -107 169 -223 180 -213 3 3 1 9 -5 13
-6 4 -29 35 -52 68 -23 34 -47 68 -54 75 -7 8 -22 32 -33 54 -11 22 -23 42
-26 45 -3 3 -27 55 -53 115 -26 61 -58 133 -71 160 l-24 50 0 -50z"/>
<path d="M2937 3794 c4 -10 -1 -17 -16 -21 -11 -3 -21 -12 -21 -20 0 -8 -4
-11 -10 -8 -5 3 -10 -1 -10 -9 0 -8 -9 -18 -21 -21 -11 -4 -18 -9 -15 -12 3
-3 -7 -18 -23 -32 -15 -15 -31 -36 -35 -49 -4 -12 -11 -22 -16 -22 -9 0 -140
-159 -140 -170 0 -12 44 -9 69 5 14 7 69 57 121 110 77 77 92 97 80 105 -12 8
-9 10 13 10 16 0 26 4 22 9 -3 6 3 14 12 20 14 8 15 13 5 19 -9 6 -6 12 12 21
28 15 42 51 20 51 -8 0 -14 -4 -14 -10 0 -5 -4 -10 -9 -10 -4 0 -6 11 -3 25 3
18 0 25 -12 25 -10 0 -13 -6 -9 -16z"/>
<path d="M923 3765 c-18 -19 -33 -45 -33 -57 1 -20 3 -18 15 10 15 35 30 44
22 12 -8 -31 5 -24 31 16 13 20 18 33 11 28 -9 -5 -10 -2 -6 9 10 26 -5 19
-40 -18z"/>
<path d="M2499 3698 c-27 -28 -48 -53 -46 -55 2 -2 25 17 51 42 27 25 52 45
57 45 5 0 9 5 9 10 0 22 -25 7 -71 -42z"/>
<path d="M985 3705 c-16 -8 -26 -14 -21 -15 6 0 -15 -25 -47 -55 -55 -54 -87
-115 -87 -168 0 -13 -14 -42 -31 -65 -25 -34 -33 -58 -40 -118 -6 -42 -8 -79
-5 -81 7 -8 78 126 87 165 5 20 9 58 9 83 0 57 26 110 85 174 38 40 48 47 56
35 8 -12 9 -11 7 6 -2 11 3 28 11 37 16 20 15 20 -24 2z"/>
<path d="M964 3605 c-9 -13 -14 -30 -12 -36 2 -7 14 4 26 24 24 41 12 51 -14
12z"/>
<path d="M1060 3602 c0 -4 -10 -20 -22 -35 -31 -38 -50 -86 -34 -83 25 3 66
54 59 72 -5 13 -3 15 7 9 9 -6 11 -4 5 5 -4 7 -2 15 5 20 8 5 7 9 -4 13 -9 4
-16 3 -16 -1z"/>
<path d="M1870 3564 c-6 -14 -10 -29 -10 -33 0 -4 -9 -25 -19 -47 -14 -29 -16
-42 -8 -52 9 -11 13 -9 19 9 5 12 6 30 3 38 -3 8 -3 12 1 8 4 -4 16 16 26 45
21 61 21 58 8 58 -6 0 -15 -12 -20 -26z"/>
<path d="M926 3560 c-4 -14 -4 -47 1 -73 l8 -46 22 40 c22 40 22 40 1 33 -12
-3 -18 -2 -15 3 4 5 2 23 -2 39 l-8 29 -7 -25z"/>
<path d="M1931 3540 c-4 -48 0 -113 7 -124 3 -5 9 1 14 14 5 13 4 27 -1 34 -5
6 -11 34 -14 61 -3 41 -4 43 -6 15z"/>
<path d="M1316 3535 c-5 -14 -1 -24 15 -36 24 -18 30 -66 9 -79 -8 -5 -7 -9 4
-13 18 -7 29 13 40 73 6 32 5 33 -5 10 l-12 -25 -7 25 c-5 14 -9 21 -9 15 -1
-5 -8 3 -15 20 -11 26 -13 27 -20 10z"/>
<path d="M1247 3493 c-3 -21 -9 -49 -12 -63 -5 -21 -5 -22 5 -7 6 9 17 32 25
51 12 28 12 36 1 45 -11 9 -15 4 -19 -26z"/>
<path d="M1441 3525 c0 -5 3 -27 8 -47 6 -24 5 -40 -2 -47 -6 -6 -12 -16 -13
-23 -1 -7 -5 -22 -9 -33 -6 -16 -3 -15 14 5 11 14 21 30 21 36 0 7 8 14 18 17
24 6 37 47 16 47 -8 0 -14 -6 -12 -13 2 -7 -1 -14 -7 -17 -20 -8 -16 33 6 58
13 15 15 19 5 10 -18 -16 -20 -16 -32 0 -8 9 -13 13 -13 7z"/>
<path d="M1563 3498 c-5 -7 -10 -22 -10 -34 -1 -11 -13 -48 -27 -82 -13 -34
-23 -62 -20 -62 9 0 64 135 64 159 0 20 2 23 10 11 8 -13 10 -12 10 3 0 20
-13 22 -27 5z"/>
<path d="M1628 3471 c-9 -21 -12 -44 -8 -51 8 -13 17 4 30 58 11 44 -4 40 -22
-7z"/>
<path d="M887 3487 c-3 -7 -8 -61 -12 -118 -7 -87 -11 -108 -31 -131 -12 -16
-25 -36 -29 -47 -4 -13 -19 -21 -53 -26 -26 -4 -49 -5 -52 -3 -3 1 -4 23 -3
48 2 34 0 40 -6 25 -5 -11 -10 -32 -10 -47 -1 -26 -4 -28 -38 -28 -31 1 -35 3
-20 11 12 7 15 17 11 35 -4 16 -2 24 6 24 8 0 10 8 7 21 -3 13 1 28 9 37 9 8
14 25 11 38 -2 13 0 21 4 18 5 -3 9 -1 9 5 0 5 -6 12 -12 14 -10 4 -10 6 0 6
6 1 12 12 12 26 0 33 -21 28 -37 -9 -14 -31 -37 -118 -47 -178 l-7 -38 -94 0
c-182 0 -375 61 -454 144 -19 20 -38 36 -41 36 -3 0 -7 -14 -8 -31 -2 -24 1
-30 12 -26 9 4 21 1 28 -6 50 -47 215 -160 278 -189 40 -19 211 -66 255 -70
27 -3 30 -7 33 -40 3 -33 1 -37 -27 -43 -17 -3 -74 -4 -127 0 -130 9 -336 77
-423 141 -1 2 0 8 4 14 4 7 21 -1 48 -22 69 -53 73 -54 47 -21 -14 18 -31 32
-37 32 -7 1 -13 9 -12 19 0 10 3 12 6 5 2 -7 11 -13 19 -13 8 0 14 -4 14 -10
0 -5 7 -10 15 -10 8 0 15 -4 15 -8 0 -4 20 -18 45 -30 25 -12 45 -20 45 -18 0
4 -140 93 -174 111 -28 15 -32 35 -6 35 12 0 18 -4 15 -10 -9 -14 9 -12 24 3
10 10 11 9 6 -5 -7 -18 29 -44 54 -39 7 1 10 -2 7 -7 -3 -6 1 -13 10 -16 10
-4 13 -2 9 7 -4 6 1 3 10 -8 9 -11 23 -19 32 -17 8 2 13 -1 10 -5 -7 -12 50
-46 62 -39 5 4 11 2 13 -2 4 -11 139 -75 144 -69 5 5 -69 53 -136 90 -35 19
-120 77 -130 88 -14 15 -77 46 -86 42 -7 -2 -11 4 -10 14 0 11 -5 18 -16 17
-10 -1 -16 2 -13 6 4 6 -47 50 -60 50 -3 0 -5 -11 -5 -24 0 -16 7 -27 20 -31
21 -7 28 -35 9 -35 -5 0 -7 5 -3 12 4 7 3 8 -5 4 -6 -4 -9 -12 -5 -17 3 -5 0
-18 -8 -27 -12 -16 -11 -16 6 -2 17 13 18 13 14 -5 -2 -11 -8 -19 -14 -18 -16
3 -15 -69 2 -94 8 -14 13 -28 9 -31 -3 -4 -10 0 -15 8 -8 13 -10 12 -10 -2 0
-12 8 -18 24 -18 17 0 31 -10 45 -33 11 -18 32 -44 46 -57 15 -14 41 -42 58
-64 52 -65 5 -38 -83 48 -80 78 -98 88 -85 45 7 -22 176 -196 245 -253 126
-104 339 -208 420 -205 15 0 3 7 -30 15 -30 8 -83 28 -117 45 -34 16 -66 29
-72 29 -5 0 -11 3 -13 8 -3 8 -64 52 -72 52 -6 0 -24 15 -84 67 -20 18 -33 33
-29 33 11 0 69 -40 79 -55 5 -6 8 -6 8 0 0 6 5 2 11 -7 5 -10 14 -18 20 -18 5
0 31 -15 57 -32 79 -55 112 -71 112 -56 1 8 5 7 14 -5 8 -10 18 -17 22 -15 5
1 20 -4 32 -11 13 -7 26 -10 30 -7 7 8 7 7 -63 41 -33 16 -66 29 -72 28 -7 0
-13 2 -13 6 0 3 -16 15 -35 25 -59 32 -32 29 37 -3 36 -17 72 -31 82 -31 9 0
24 -4 34 -9 37 -19 68 -31 87 -34 11 -2 27 -7 35 -10 16 -7 183 -32 286 -43
104 -11 93 25 -36 113 -36 25 -54 42 -40 38 43 -13 84 -36 118 -68 29 -28 48
-27 20 1 -6 6 -8 15 -4 19 4 5 21 -7 38 -26 28 -32 29 -36 23 -95 -4 -33 -11
-76 -15 -95 -12 -46 -5 -52 13 -9 8 18 32 65 54 103 131 228 129 224 139 207
10 -14 12 -14 34 1 38 27 46 20 15 -13 -15 -16 -31 -28 -35 -27 -13 3 -82 -92
-75 -103 4 -6 1 -9 -6 -8 -6 2 -14 -3 -17 -11 -3 -9 0 -11 8 -6 9 6 9 3 1 -13
-20 -38 -11 -36 24 4 19 21 39 43 44 48 5 4 25 23 45 42 19 19 33 34 30 34 -3
0 1 6 8 14 11 13 15 13 26 -2 6 -8 12 -23 12 -31 -1 -11 -5 -8 -13 7 l-13 23
-12 -25 c-11 -26 -7 -56 8 -56 4 0 11 -12 15 -27 5 -21 8 -24 16 -12 5 7 7 28
4 44 -6 37 4 15 21 -45 l12 -45 1 36 c1 39 -25 136 -42 157 -7 9 -7 16 0 23 8
8 14 5 22 -9 6 -10 7 -22 4 -26 -3 -3 0 -6 8 -6 11 0 11 -2 -1 -10 -8 -5 -10
-10 -4 -10 7 0 19 -19 28 -41 9 -23 20 -39 23 -35 3 3 -2 24 -12 46 -10 22
-16 43 -13 46 13 12 48 -106 42 -138 -7 -35 -50 -118 -68 -130 -21 -14 -18 1
7 34 27 37 50 78 43 78 -2 0 -21 -23 -41 -50 -23 -32 -35 -56 -31 -67 4 -9 1
-20 -6 -25 -10 -6 -8 -8 5 -8 9 0 17 -5 17 -11 0 -7 -9 -5 -22 5 -13 9 -30 19
-38 22 -8 3 -28 11 -43 16 -20 8 -24 13 -16 19 9 5 -6 16 -43 32 -50 22 -60
24 -91 13 -29 -10 -33 -15 -26 -29 8 -13 6 -15 -5 -11 -33 13 -45 -82 -16
-136 6 -11 7 -20 2 -20 -5 0 -14 12 -21 26 -22 49 -23 16 -2 -51 12 -36 19
-70 16 -74 -2 -5 4 -20 15 -34 11 -14 20 -31 20 -39 0 -7 -10 -1 -21 14 -41
56 -141 148 -219 203 -45 32 -79 60 -76 62 10 10 141 -82 209 -146 37 -35 67
-61 67 -56 0 5 -14 33 -31 64 -38 68 -116 143 -184 176 -46 23 -61 25 -175 24
-69 -1 -147 4 -175 10 -124 29 -359 131 -409 177 -33 32 -60 32 -50 2 3 -13
14 -31 22 -41 19 -21 151 -87 175 -87 9 0 22 -9 30 -20 8 -11 20 -18 28 -15 8
2 45 -4 83 -14 49 -13 63 -20 47 -24 -11 -3 -24 -1 -27 4 -3 5 -13 9 -22 9
-15 -1 -15 -2 1 -11 27 -16 77 -22 77 -10 0 6 5 11 10 11 6 0 10 -7 10 -16 0
-11 6 -14 23 -9 25 8 22 8 62 6 l30 -2 -35 -15 c-20 -9 -69 -16 -112 -17 -74
-2 -78 -3 -89 -28 -7 -18 -16 -25 -28 -22 -11 3 -21 -4 -29 -22 -15 -33 -15
-36 1 -29 8 3 14 -2 14 -11 0 -8 -7 -15 -15 -15 -9 0 -13 -3 -9 -6 3 -4 -3
-24 -14 -46 -11 -22 -23 -37 -26 -34 -4 3 -15 -8 -25 -25 -10 -16 -23 -27 -28
-24 -14 8 -1 -78 13 -86 5 -4 7 -12 3 -18 -10 -15 4 -82 15 -75 5 3 6 17 3 32
l-7 27 28 -28 c28 -27 55 -29 79 -6 6 5 18 9 27 9 10 0 21 9 24 20 6 18 12 22
32 19 11 -1 24 31 17 43 -5 7 -3 8 6 3 10 -6 12 -4 7 9 -6 14 -3 17 8 12 10
-4 19 2 25 17 5 12 9 16 9 9 1 -7 5 -11 10 -7 5 3 12 1 16 -5 4 -6 10 -8 14
-6 4 3 17 -3 28 -14 16 -14 23 -16 33 -7 10 9 11 9 6 0 -5 -10 5 -13 38 -13
24 0 46 -3 49 -7 2 -5 2 -2 1 4 -2 7 8 16 21 19 31 8 40 35 25 79 -6 19 -10
42 -8 51 3 18 10 12 68 -57 36 -44 37 -49 8 -42 -19 4 -20 3 -8 -6 8 -6 23 -8
33 -5 9 3 18 1 18 -5 1 -6 2 -16 3 -22 0 -5 10 -20 21 -32 37 -40 52 -62 36
-52 -9 5 -8 -2 5 -24 11 -19 24 -29 34 -26 8 2 21 1 28 -4 25 -15 -18 -22 -54
-9 -32 11 -39 20 -35 42 1 5 -4 4 -12 -3 -12 -9 -18 -9 -28 1 -16 15 -33 19
-116 24 -49 3 -63 0 -63 -10 0 -8 6 -16 13 -19 6 -2 9 -8 5 -12 -15 -16 -40 4
-33 26 5 15 4 19 -4 15 -16 -10 -14 -26 5 -48 14 -14 14 -21 5 -32 -11 -12 -8
-20 14 -42 22 -22 29 -24 36 -13 6 10 9 10 9 2 0 -7 -1 -15 -2 -17 -2 -3 7
-15 20 -28 12 -14 20 -27 17 -30 -3 -3 1 -11 10 -18 8 -7 15 -19 15 -26 0 -8
6 -14 13 -14 7 -1 4 -7 -7 -15 -10 -8 -24 -12 -30 -9 -6 3 8 -12 31 -34 39
-36 41 -41 26 -53 -15 -12 -16 -12 -11 2 4 11 -2 24 -15 36 -34 31 -54 39 -30
12 24 -26 47 -79 38 -87 -3 -3 -5 0 -5 6 0 7 -5 12 -11 12 -5 0 -7 -5 -3 -12
5 -8 2 -9 -10 -5 -10 4 -15 3 -11 -3 3 -6 12 -10 20 -10 8 0 11 -7 8 -20 -3
-11 -9 -20 -14 -20 -5 0 -9 -6 -9 -12 0 -7 -11 -26 -24 -42 -25 -32 -25 -31
25 -84 14 -15 32 -42 40 -59 7 -18 18 -33 22 -33 5 0 5 -5 2 -10 -3 -6 -1 -10
4 -10 6 0 11 6 12 13 0 6 5 -3 10 -21 5 -18 13 -31 17 -28 4 2 8 -20 8 -49 0
-76 -21 -80 -42 -7 -27 95 -45 142 -54 142 -11 0 -5 -95 8 -137 6 -18 9 -33 6
-33 -2 0 5 -9 16 -20 11 -11 20 -27 20 -35 0 -18 12 -19 27 -4 7 7 15 -2 27
-31 9 -22 16 -48 17 -58 0 -14 2 -14 9 3 7 16 9 13 9 -17 1 -22 11 -52 27 -75
35 -52 49 -58 69 -31 8 13 21 23 28 23 6 0 13 9 15 20 3 16 1 17 -7 5 -16 -23
-13 1 4 33 10 20 12 40 7 65 -4 21 -6 44 -6 52 1 8 2 22 3 29 1 11 4 12 12 4
12 -12 39 -7 39 8 0 4 -7 6 -17 2 -14 -6 -14 -3 2 25 10 17 22 29 26 26 4 -2
15 17 25 43 9 27 25 66 35 89 11 22 19 50 19 62 0 12 4 22 9 22 4 0 11 16 14
35 3 19 15 49 27 65 14 20 17 30 9 30 -8 0 -7 4 4 12 26 21 52 111 30 106 -5
0 -16 2 -25 6 -23 10 -24 38 -1 29 11 -4 14 -3 9 5 -9 16 -33 15 -39 0 -3 -7
-3 16 -1 52 2 36 8 66 14 68 14 5 12 43 -5 92 -17 49 -19 61 -5 40 8 -13 10
-13 10 2 0 9 -6 18 -12 21 -10 3 -10 9 -1 25 11 18 10 19 -9 14 -14 -3 -19 -1
-14 6 4 7 2 12 -5 12 -7 0 -9 10 -7 25 3 13 1 22 -4 19 -4 -3 -11 1 -14 10 -3
9 -12 12 -22 9 -13 -5 -14 -3 -5 7 6 7 9 19 6 27 -5 12 -7 12 -15 1 -6 -9 -7
-6 -3 10 4 13 1 30 -6 38 -16 20 -20 35 -25 109 -2 33 -6 66 -9 73 -3 7 0 10
5 7 7 -4 8 8 4 34 -5 34 -4 41 10 41 26 0 30 1 42 11 15 12 123 -41 123 -60 1
-8 4 -12 7 -9 3 4 17 0 32 -8 17 -9 28 -10 33 -3 3 5 10 9 15 7 13 -4 54 34
54 50 0 7 7 15 16 19 11 4 14 14 10 32 -3 14 -2 20 1 12 4 -9 16 7 33 45 17
38 23 61 16 66 -7 4 -5 13 6 25 8 10 21 29 28 42 11 21 10 23 -4 18 -11 -5
-18 1 -22 19 -6 23 -10 25 -46 19 -29 -5 -38 -4 -36 6 2 7 -3 13 -10 14 -7 0
-17 6 -21 14 -5 8 -16 11 -25 8 -16 -6 -56 27 -56 46 0 5 -7 4 -15 -3 -8 -7
-24 -10 -35 -7 -19 5 -70 -35 -70 -55 0 -5 -5 -6 -10 -3 -6 4 -13 -7 -16 -24
-6 -31 -29 -42 -37 -18 -2 6 -4 -3 -5 -21 0 -22 3 -30 11 -26 7 3 5 0 -4 -8
-9 -7 -19 -26 -24 -43 l-8 -30 -7 34 c-8 34 -27 54 -43 44 -4 -3 -7 3 -5 13 2
10 -2 19 -9 19 -6 0 -21 10 -32 22 -12 12 -41 34 -65 48 -37 22 -55 25 -103
23 -44 -3 -53 -6 -38 -12 11 -5 44 -20 74 -33 60 -26 65 -38 8 -21 -32 10 -40
9 -54 -4 -14 -15 -11 -19 43 -46 33 -17 77 -46 99 -66 38 -34 39 -36 13 -32
-14 3 -44 23 -66 45 -38 39 -62 52 -62 32 0 -6 10 -17 22 -25 l22 -16 -26 0
c-15 0 -30 5 -34 11 -3 6 -14 9 -25 6 -10 -3 -47 1 -83 8 -36 6 -68 10 -71 7
-2 -3 -10 0 -17 6 -7 5 -54 24 -105 41 -99 33 -171 69 -273 137 -66 43 -95 71
-192 180 -29 33 -68 77 -86 97 -17 20 -32 39 -32 42 0 3 36 -20 81 -51 44 -31
111 -69 149 -85 111 -45 257 -81 314 -77 l51 3 12 -55 c6 -30 12 -71 12 -92 1
-38 7 -44 108 -100 51 -28 51 -22 -2 32 -27 28 -46 50 -42 50 10 0 77 -39 114
-67 46 -35 45 -34 -23 84 -11 18 -22 33 -26 33 -5 0 -8 6 -8 13 0 12 15 12 88
2 106 -15 155 -34 207 -83 22 -20 36 -33 32 -28 -4 5 -2 15 5 23 8 11 7 12 -5
7 -15 -5 -39 24 -36 43 4 21 -2 33 -16 33 -8 0 -15 5 -15 10 0 6 -7 10 -15 10
-8 0 -14 -3 -13 -7 2 -5 0 -9 -4 -10 -13 -4 -38 9 -38 19 0 6 7 8 15 4 8 -3
15 -2 15 3 0 10 -49 26 -65 21 -21 -6 -83 -5 -79 2 2 4 0 9 -6 13 -5 3 -10 -1
-10 -9 0 -12 -10 -16 -40 -16 -33 0 -38 3 -33 18 3 9 13 23 21 30 11 8 12 12
3 12 -7 0 -9 5 -5 13 5 8 4 9 -3 2 -6 -5 -16 -27 -23 -49 -9 -28 -15 -35 -21
-25 -5 8 -9 10 -9 4 0 -5 5 -17 10 -25 6 -10 10 -11 10 -2 0 6 4 12 9 12 4 0
6 -11 3 -25 -2 -14 1 -32 8 -40 8 -10 9 -15 2 -15 -6 0 -14 5 -17 11 -4 6 -13
8 -21 5 -17 -7 -43 19 -48 47 -2 12 -10 49 -17 82 -8 33 -13 64 -11 68 1 4 -2
17 -8 27 -8 16 -8 18 5 14 18 -7 19 8 3 53 -7 18 -18 33 -25 33 -17 0 -17 20
0 21 19 1 -25 16 -63 22 -44 6 -86 22 -95 36 -8 14 37 15 51 2 13 -14 182 -33
218 -25 28 6 68 10 133 13 12 1 30 10 40 20 10 10 27 21 38 23 17 3 15 5 -7
10 -16 3 -26 1 -25 -5 4 -23 -185 -50 -289 -42 -131 10 -115 22 34 23 170 2
187 9 212 83 10 29 18 76 19 105 0 30 5 63 11 73 12 24 13 71 1 89 -7 11 -9
11 -14 -1z m-617 -322 c7 -8 29 -19 50 -25 20 -5 45 -19 55 -30 16 -18 12 -17
-41 6 -69 29 -118 63 -93 64 9 0 22 -7 29 -15z m258 -260 c-2 -6 -11 -9 -22
-7 -16 2 -17 0 -6 -13 15 -18 -1 -20 -18 -3 -13 13 -16 32 -4 24 4 -2 14 -1
22 4 18 11 33 8 28 -5z m1047 -296 c4 -12 3 -24 -2 -28 -6 -3 -13 -13 -17 -21
-3 -8 -4 -4 -2 9 3 13 1 33 -5 43 -7 14 -6 18 5 18 8 0 18 -10 21 -21z m-729
-231 c3 -4 -13 -8 -36 -8 -23 0 -39 4 -35 9 7 12 64 11 71 -1z m117 -50 c64
-41 59 -46 -9 -9 -30 17 -61 31 -69 31 -8 0 -17 5 -21 11 -12 20 47 0 99 -33z
m-155 -33 c17 -4 32 -11 32 -16 0 -5 -8 -6 -17 -3 -10 3 -6 -2 9 -10 15 -9 37
-34 49 -56 12 -22 25 -38 27 -35 3 2 -3 16 -12 30 -9 14 -13 25 -8 25 23 0
203 -118 248 -162 29 -28 54 -46 56 -42 3 5 3 4 2 -3 -2 -6 4 -17 12 -23 8 -7
14 -19 14 -28 0 -9 -24 9 -59 43 -65 64 -170 139 -180 129 -3 -4 0 -9 7 -11
19 -7 109 -79 170 -135 28 -27 56 -47 61 -44 13 8 23 -23 16 -48 -5 -17 -4
-18 4 -6 6 8 9 29 6 45 -3 17 4 6 15 -24 11 -29 17 -57 14 -62 -2 -4 2 -25 11
-45 18 -43 18 -47 6 -39 -5 3 -12 -3 -14 -12 -14 -51 -17 -73 -9 -73 22 0 -2
-68 -43 -126 -26 -35 -49 -64 -52 -64 -3 0 -2 12 1 26 5 17 3 25 -5 22 -6 -2
-13 -26 -15 -53 -2 -37 -1 -46 7 -32 19 32 29 17 12 -18 -9 -19 -20 -32 -24
-30 -4 3 -10 -6 -13 -20 -9 -34 -19 -31 -50 14 -28 39 -62 61 -97 61 -12 0
-18 4 -13 11 5 8 28 10 71 6 57 -6 63 -5 53 8 -7 8 -19 15 -26 15 -8 0 -23 5
-33 12 -15 9 -28 7 -62 -7 -45 -18 -99 -27 -99 -15 0 3 18 17 40 30 22 14 40
31 40 38 0 6 7 12 16 12 27 0 117 71 105 83 -7 7 -31 -3 -74 -31 -62 -41 -87
-51 -87 -33 0 5 12 11 28 14 26 6 157 116 138 117 -5 0 -32 -16 -60 -35 -52
-35 -116 -61 -116 -45 0 4 9 10 20 13 11 3 20 11 20 17 0 7 -6 10 -14 7 -8 -3
-34 16 -62 46 -27 28 -40 44 -30 36 16 -11 16 -8 -4 18 -13 18 -26 30 -30 28
-4 -3 -15 4 -25 15 -14 16 -20 17 -27 8 -6 -10 -8 -10 -8 0 0 7 -5 10 -12 6
-6 -4 -8 -3 -5 2 3 5 20 11 39 12 18 1 40 11 50 22 17 21 38 27 38 11 0 -8
121 -62 138 -61 4 1 -9 10 -28 21 -19 11 -26 17 -15 14 50 -17 105 -34 158
-50 49 -15 61 -23 82 -59 19 -33 23 -50 18 -81 -3 -22 -13 -48 -21 -57 -20
-24 0 -23 22 1 25 28 30 81 12 126 l-16 38 22 -19 c22 -19 23 -19 8 1 -39 52
-139 145 -156 145 -20 0 -97 67 -102 88 -1 7 -20 36 -43 64 -22 28 -37 53 -34
56 3 3 13 -5 22 -19 10 -13 49 -55 87 -94 38 -38 61 -60 51 -47 -34 42 -1 22
59 -35 38 -37 51 -47 38 -27 -31 46 -102 106 -117 100 -8 -3 -15 -1 -17 3 -2
5 -29 38 -61 74 -41 45 -64 64 -75 60 -14 -4 -14 -3 -3 5 12 8 3 23 -44 76
-60 69 -73 80 -55 46 12 -22 1 -27 -19 -7 -11 10 -12 9 -6 -3 4 -8 15 -23 23
-33 8 -9 12 -20 8 -24 -4 -5 -12 0 -17 10 -6 9 -15 14 -21 11 -7 -4 -8 -2 -4
4 9 15 -15 52 -34 52 -9 0 -21 5 -28 12 -19 19 -14 2 18 -62 29 -57 50 -83 50
-60 0 6 5 8 11 5 6 -5 4 -12 -8 -20 -15 -11 -21 -11 -34 1 -33 30 -28 12 11
-37 22 -29 38 -54 36 -57 -3 -2 -34 -1 -70 3 -63 6 -66 8 -78 41 -13 35 -34
45 -44 19 -4 -8 -10 -13 -15 -10 -4 3 -13 -4 -19 -15 -9 -17 -14 -19 -26 -9
-20 17 -17 33 12 69 32 38 24 53 -11 20 -14 -13 -25 -18 -25 -12 0 6 17 23 37
37 35 23 36 25 13 25 -13 0 -37 -12 -52 -27 -15 -15 -28 -22 -28 -15 0 18 43
53 73 59 15 3 30 10 33 15 4 6 -6 8 -27 3 -25 -4 -30 -3 -19 4 8 6 25 11 37
11 12 0 25 5 29 11 16 27 -84 -5 -138 -44 -15 -10 -20 -8 -34 11 -8 12 -20 19
-26 16 -6 -4 -8 -2 -5 4 4 5 17 8 29 5 13 -4 25 0 33 10 7 10 30 17 61 19 74
6 255 1 292 -7z m109 -48 c40 -27 35 -34 -11 -12 -41 19 -75 54 -41 41 11 -4
34 -17 52 -29z m-450 -42 c-23 -35 -37 -44 -37 -22 -1 6 -8 -4 -16 -23 -23
-51 -21 -115 3 -148 l20 -28 -33 -24 c-18 -14 -35 -29 -37 -35 -2 -5 -2 2 0
16 2 14 -3 38 -12 55 l-16 29 5 -40 6 -40 -14 45 c-7 25 -17 52 -20 61 -4 9 0
21 9 29 13 11 15 9 15 -14 0 -34 25 -34 28 1 3 36 48 133 62 133 6 0 8 6 4 13
-4 6 -4 9 1 5 4 -4 17 -1 29 7 28 20 28 20 3 -20z m-1 -81 c-3 -9 -6 -20 -6
-25 0 -21 -16 -7 -18 16 -1 17 3 25 14 25 11 0 14 -5 10 -16z m322 -34 c12
-22 19 -40 15 -40 -4 0 -18 18 -31 40 -12 22 -19 40 -15 40 4 0 18 -18 31 -40z
m-295 -63 c-8 -13 -33 14 -33 37 0 20 1 20 19 -4 11 -13 17 -28 14 -33z m444
-401 c-15 -6 -27 -14 -27 -18 0 -5 -9 -3 -20 4 -30 19 -25 23 27 23 41 0 44
-1 20 -9z m378 -48 c24 -5 22 -35 -5 -60 -10 -9 -21 -32 -25 -50 -11 -54 -57
-183 -67 -189 -5 -3 -9 -9 -9 -13 3 -23 0 -36 -9 -31 -5 3 -10 -3 -10 -14 0
-27 -20 -72 -42 -94 -26 -25 -22 -8 12 65 16 34 30 69 30 77 0 8 17 48 38 89
25 50 33 76 25 79 -7 2 -10 10 -7 16 2 7 0 26 -5 42 -5 17 -10 24 -10 18 -1
-7 -6 -13 -13 -13 -6 0 -3 8 7 20 10 11 21 18 25 15 4 -2 16 2 26 10 10 8 14
15 9 15 -6 0 -17 -6 -24 -12 -12 -11 -13 -9 -6 7 4 11 10 29 13 39 4 17 6 17
16 4 6 -9 20 -17 31 -20z m-100 -169 c-9 -35 -21 -68 -27 -74 -7 -7 -9 -2 -5
15 4 14 12 51 18 83 7 35 15 55 21 49 6 -6 3 -34 -7 -73z m-306 51 c-11 -6
-15 -18 -12 -34 5 -22 2 -25 -20 -20 -14 2 -29 -1 -33 -7 -4 -7 -3 -9 4 -5 6
3 14 1 18 -5 4 -8 3 -9 -4 -5 -17 10 -15 5 18 -55 16 -30 30 -61 30 -69 0 -8
-18 18 -40 58 -38 67 -57 93 -44 57 4 -8 1 -15 -5 -15 -21 0 -11 22 31 66 23
24 49 44 57 44 14 -1 14 -2 0 -10z m94 -51 c21 -21 26 -29 13 -25 -14 5 -17 3
-11 -11 4 -10 10 -38 13 -62 5 -42 5 -43 18 -20 12 21 13 21 14 5 0 -29 12
-11 20 31 6 31 8 35 15 19 5 -11 3 -26 -3 -37 -14 -23 -15 -39 -3 -39 5 0 15
16 21 35 6 19 16 33 21 29 6 -3 -6 -34 -26 -69 -24 -43 -32 -66 -24 -71 6 -3
15 0 20 7 12 19 11 2 -1 -21 -6 -11 -6 -21 -1 -24 5 -4 8 -32 5 -64 -2 -31 -6
-96 -8 -144 -6 -109 -14 -125 -37 -72 -24 55 -23 87 7 146 20 40 25 59 20 92
-10 65 -26 80 -26 24 0 -59 -18 -146 -32 -154 -8 -5 -9 5 -5 30 5 31 3 37 -11
34 -10 -2 -19 -16 -22 -33 -6 -29 -14 28 -25 163 -4 51 -20 101 -51 164 -28
55 -31 70 -8 42 12 -14 14 -15 11 -3 -7 23 20 59 44 59 11 0 34 -14 52 -31z"/>
<path d="M960 2122 c0 -5 24 -29 52 -53 95 -79 198 -181 198 -195 0 -8 5 -14
10 -14 34 0 -32 77 -164 195 -74 66 -96 81 -96 67z"/>
<path d="M850 1851 c0 -21 49 -42 116 -48 38 -3 76 -10 84 -14 9 -6 -5 -7 -35
-3 -27 3 -61 1 -75 -5 -21 -8 -17 -10 31 -10 75 -1 114 -16 172 -63 50 -42 57
-42 31 -2 -16 23 -16 24 2 17 17 -6 17 -5 5 11 -8 9 -20 15 -28 12 -8 -3 -12
-2 -9 3 14 23 -110 83 -155 74 -21 -4 -63 7 -121 32 -11 4 -18 3 -18 -4z"/>
<path d="M915 1377 c1 -12 9 -39 18 -60 10 -20 24 -69 32 -109 9 -40 17 -73
19 -75 10 -11 15 110 6 151 -12 54 -38 111 -47 102 -4 -3 -11 -2 -18 4 -7 6
-11 2 -10 -13z"/>
<path d="M1157 3493 c-12 -11 -8 -65 4 -58 6 4 8 9 5 12 -2 3 -1 16 4 29 9 23
1 32 -13 17z"/>
<path d="M755 3430 c-3 -11 -11 -20 -16 -20 -5 0 -9 -10 -9 -21 0 -12 -9 -36
-19 -53 -11 -17 -22 -49 -25 -71 l-6 -40 12 38 c7 22 16 36 20 32 3 -3 9 8 13
27 4 18 18 49 31 70 13 21 24 42 24 48 0 18 -18 11 -25 -10z"/>
<path d="M1024 3418 c-3 -4 -3 -8 1 -8 3 0 1 -9 -5 -19 -7 -14 -7 -22 2 -27 7
-4 8 -3 4 4 -4 7 -3 12 2 12 5 0 14 11 19 23 9 19 8 24 -3 24 -8 0 -17 -4 -20
-9z"/>
<path d="M1776 3415 c-3 -9 -10 -13 -16 -10 -5 3 -7 0 -4 -9 6 -15 -24 -76
-37 -76 -8 0 -29 -48 -29 -68 0 -9 11 3 24 28 13 25 36 67 51 93 15 26 25 50
22 53 -2 3 -7 -2 -11 -11z"/>
<path d="M10 3394 c-11 -13 -10 -19 10 -37 18 -18 22 -19 17 -4 -10 27 7 20
32 -14 31 -42 37 -31 9 17 -32 57 -47 65 -68 38z"/>
<path d="M1482 3377 c-23 -24 -28 -42 -14 -51 5 -3 19 13 31 34 25 44 16 52
-17 17z"/>
<path d="M1364 3359 c-14 -27 -14 -33 -2 -46 12 -11 15 -11 16 -1 7 53 8 78 6
78 -2 0 -11 -14 -20 -31z"/>
<path d="M1243 3358 c-4 -7 -13 -22 -18 -33 -6 -11 -17 -20 -25 -20 -21 -1
-40 -14 -40 -28 0 -6 6 -3 13 8 9 11 16 14 20 8 4 -6 -2 -22 -13 -36 -33 -42
-22 -39 24 8 24 24 48 54 51 67 4 13 13 26 19 30 7 5 5 8 -6 8 -9 0 -20 -6
-25 -12z"/>
<path d="M1106 3326 c-4 -15 -19 -39 -33 -52 -20 -19 -22 -24 -9 -24 9 0 25
13 34 30 12 21 22 28 35 24 10 -3 17 0 17 7 0 7 -3 9 -7 5 -4 -3 -12 3 -19 15
-11 21 -11 21 -18 -5z"/>
<path d="M1978 3226 c-15 -8 -29 -12 -31 -9 -3 2 -22 -5 -44 -16 -47 -25 -40
-26 37 -4 32 9 61 22 64 30 7 16 7 16 -26 -1z"/>
<path d="M1095 3215 c33 -16 81 -21 55 -6 -8 5 -31 11 -50 14 l-35 6 30 -14z"/>
<path d="M1277 3207 c-24 -37 -21 -55 4 -23 11 14 19 31 17 37 -2 7 -12 0 -21
-14z"/>
<path d="M2593 3212 c-17 -8 -36 -26 -42 -39 -13 -28 -3 -24 49 20 39 33 37
40 -7 19z"/>
<path d="M1400 3159 c13 -23 31 -45 104 -128 55 -62 66 -70 66 -47 0 9 -4 16
-10 16 -13 0 -50 37 -50 51 0 5 -4 7 -10 4 -5 -3 -10 1 -10 9 0 9 -3 16 -7 16
-5 0 -19 17 -33 38 -28 42 -46 62 -55 62 -3 0 -1 -9 5 -21z"/>
<path d="M1145 3131 c-3 -6 -14 -8 -25 -6 -13 3 -24 -4 -31 -18 -8 -19 -8 -20
3 -7 7 9 20 15 28 15 8 -1 20 2 25 6 6 4 19 9 30 12 19 4 18 5 -2 6 -12 0 -24
-3 -28 -8z"/>
<path d="M1855 3119 c-11 -4 -15 -8 -10 -9 19 -4 60 2 67 8 10 10 -33 11 -57
1z"/>
<path d="M1980 3114 c0 -8 -5 -12 -11 -9 -15 10 -61 -4 -54 -16 4 -6 -3 -7
-19 -3 -20 5 -26 2 -26 -10 0 -21 10 -20 122 5 136 31 157 48 28 23 -17 -3
-30 -1 -30 5 0 5 10 12 23 14 19 4 18 4 -5 6 -19 1 -28 -4 -28 -15z"/>
<path d="M2336 3111 c-10 -11 -23 -18 -29 -17 -7 2 -9 1 -5 -1 3 -2 -5 -15
-18 -28 -13 -13 -24 -32 -23 -42 0 -11 3 -13 6 -5 2 6 11 12 19 12 9 0 13 4
10 9 -3 5 10 23 29 40 20 17 32 31 28 31 -4 0 -1 5 7 10 8 5 10 10 4 10 -6 0
-19 -9 -28 -19z"/>
<path d="M1220 3081 c0 -6 9 -21 20 -33 10 -13 26 -32 34 -43 9 -11 16 -15 16
-8 0 6 -16 30 -35 53 -19 23 -35 37 -35 31z"/>
<path d="M1847 3063 c-4 -3 -35 -5 -69 -4 -75 2 -74 -4 2 -13 30 -3 71 -10 90
-16 44 -13 70 -13 70 0 0 6 -13 10 -29 10 -37 0 -62 10 -55 21 6 10 0 12 -9 2z"/>
<path d="M707 3040 c-26 -3 -47 -9 -47 -15 0 -5 5 -10 12 -10 6 0 13 -11 15
-25 2 -14 15 -41 29 -62 14 -20 24 -43 21 -50 -4 -8 -8 -5 -12 9 -4 12 -13 24
-21 27 -13 5 -12 2 1 -16 8 -13 15 -31 15 -42 0 -18 2 -17 20 4 12 14 17 27
11 34 -10 14 -41 105 -41 123 0 8 12 13 31 13 31 0 32 -1 26 -40 -6 -46 1 -80
15 -80 6 0 8 16 6 38 -3 22 1 46 9 59 10 14 11 23 4 28 -6 3 -11 4 -11 0 0 -3
-8 -2 -17 2 -10 5 -39 6 -66 3z"/>
<path d="M1830 3001 c0 -5 11 -8 25 -6 14 1 28 -2 31 -6 3 -5 13 -9 22 -9 12
1 10 5 -8 15 -28 16 -70 20 -70 6z"/>
<path d="M2342 3001 c-12 -7 -45 -61 -38 -61 2 0 17 16 35 35 30 33 31 44 3
26z"/>
<path d="M2263 2934 c-27 -42 -42 -91 -24 -80 6 4 9 12 6 17 -4 5 1 12 9 15 9
3 13 10 10 15 -3 5 2 16 10 25 13 13 23 45 14 44 -2 -1 -13 -17 -25 -36z"/>
<path d="M943 2894 c4 -4 2 -12 -3 -19 -7 -8 -5 -12 5 -12 8 0 12 4 9 9 -10
15 6 8 26 -12 11 -11 30 -20 42 -20 19 0 20 2 8 14 -15 14 -101 53 -87 40z"/>
<path d="M2355 2884 c-6 -8 -19 -16 -29 -18 -11 -1 -22 -9 -24 -16 -3 -8 11
-4 37 10 22 13 41 27 41 32 0 13 -14 9 -25 -8z"/>
<path d="M1150 2871 c8 -5 11 -13 7 -17 -3 -4 7 -24 24 -46 17 -21 34 -36 37
-33 3 3 -8 19 -24 36 -16 16 -29 37 -29 46 0 9 -7 18 -15 20 -13 4 -13 3 0 -6z"/>
<path d="M0 2849 c0 -14 13 -44 29 -66 29 -40 160 -162 174 -163 4 0 21 -13
38 -30 17 -16 41 -32 52 -36 12 -4 27 -13 35 -20 7 -8 18 -12 23 -9 5 4 9 2 9
-3 0 -5 19 -17 43 -27 23 -9 54 -24 70 -32 15 -8 27 -12 27 -9 0 2 26 -5 58
-16 46 -17 79 -21 177 -20 66 1 131 5 144 10 16 6 -19 9 -108 10 -112 1 -146
5 -224 28 -75 22 -228 98 -247 122 -3 4 -27 25 -55 46 -27 21 -94 84 -147 140
-86 89 -98 98 -98 75z"/>
<path d="M681 2836 c6 -20 7 -46 4 -56 -4 -12 -2 -20 5 -20 6 0 8 5 5 10 -3 6
-2 10 4 10 11 0 -5 69 -20 84 -4 5 -4 -7 2 -28z"/>
<path d="M340 2844 c14 -10 30 -23 36 -30 14 -18 215 -115 228 -111 6 2 -9 14
-32 26 -24 12 -42 25 -39 28 3 2 27 -7 54 -22 36 -20 42 -22 25 -7 -12 11 -21
26 -20 32 4 16 -107 57 -173 64 -14 1 -36 10 -50 19 -13 9 -30 17 -38 17 -10
0 -6 -6 9 -16z"/>
<path d="M0 2726 c0 -15 15 -46 34 -71 59 -78 52 -29 -9 61 -25 36 -25 37 -25
10z"/>
<path d="M2 2432 c1 -133 3 -242 4 -242 16 0 32 15 27 25 -2 8 2 27 9 43 9 17
12 36 7 48 -4 10 -8 40 -8 66 -1 26 -5 58 -11 72 -10 27 0 35 18 14 5 -7 26
-58 45 -113 43 -122 66 -175 67 -154 0 9 10 19 23 23 13 3 52 39 86 79 45 53
69 73 81 70 10 -3 21 1 25 8 5 8 4 10 -3 5 -7 -4 -33 9 -59 30 l-48 37 35 -6
c34 -5 34 -5 -10 15 -25 12 -65 23 -89 26 -42 5 -43 4 -32 -17 7 -12 32 -32
57 -43 24 -12 44 -26 44 -30 0 -4 9 -8 20 -8 24 0 25 -8 5 -34 -11 -14 -15
-16 -15 -5 0 8 -13 1 -30 -19 -17 -18 -30 -30 -30 -27 0 3 -9 -3 -19 -12 -11
-9 -18 -20 -15 -25 8 -13 -9 -9 -30 7 -11 8 -21 24 -23 36 -2 11 -14 45 -28
75 -14 30 -24 56 -22 58 1 3 -8 15 -19 28 -12 13 -25 34 -29 48 -4 14 -13 28
-19 32 -6 4 -7 10 -3 14 4 4 15 -2 23 -15 34 -47 61 -74 67 -64 3 5 -6 27 -21
49 -14 21 -25 39 -23 39 2 0 1 10 -3 23 -4 12 -12 22 -17 22 -5 0 -8 3 -7 8 2
4 -5 18 -15 32 -17 24 -17 16 -15 -218z"/>
<path d="M2400 2626 c0 -4 86 -46 93 -46 2 0 4 7 4 15 0 8 -4 12 -8 10 -4 -3
-23 2 -43 10 -37 16 -46 18 -46 11z"/>
<path d="M650 2512 c0 -5 22 -14 49 -21 72 -18 161 -29 161 -19 0 4 -8 8 -17
9 -10 0 -27 3 -38 5 -11 3 -31 7 -45 8 -14 2 -38 8 -53 15 -33 13 -57 14 -57
3z"/>
<path d="M2473 2488 c0 -20 4 -28 18 -28 26 0 34 20 15 36 -9 8 -11 9 -6 2 12
-15 13 -28 2 -28 -5 0 -14 10 -19 23 -10 21 -10 21 -10 -5z"/>
<path d="M2337 2470 c9 -54 24 -83 18 -36 -3 21 -10 46 -15 55 -7 11 -8 6 -3
-19z"/>
<path d="M2745 2460 c20 -22 8 -28 -14 -7 -11 10 -12 9 -6 -3 20 -37 29 -43
36 -23 7 21 -6 53 -23 53 -6 0 -3 -9 7 -20z"/>
<path d="M1280 2437 c0 -8 101 -40 107 -33 6 6 -38 25 -79 33 -16 3 -28 3 -28
0z"/>
<path d="M2064 2393 c-4 -13 -10 -20 -15 -17 -5 3 -9 -4 -9 -15 0 -12 -5 -21
-11 -21 -5 0 -7 -4 -4 -10 11 -17 25 -11 25 11 0 12 8 23 20 26 22 6 24 11 10
33 -8 13 -11 11 -16 -7z"/>
<path d="M316 2335 c-21 -32 -20 -33 8 -28 27 5 41 39 21 47 -8 3 -21 -6 -29
-19z"/>
<path d="M64 2332 c3 -5 7 -21 10 -37 3 -16 11 -32 18 -37 10 -6 9 -8 -3 -8
-22 0 -28 -36 -15 -90 11 -42 36 -68 36 -36 0 9 6 16 13 16 14 0 12 66 -3 85
-4 6 -11 25 -15 43 -3 17 -11 32 -16 32 -5 0 -8 3 -8 8 3 18 -2 32 -12 32 -5
0 -8 -4 -5 -8z"/>
<path d="M0 2148 c0 -33 41 -68 69 -61 22 5 21 7 -15 44 -44 45 -54 48 -54 17z"/>
<path d="M2424 2075 c4 -16 12 -32 17 -33 5 -2 6 -9 3 -14 -4 -7 -2 -8 4 -4 9
5 9 13 0 29 -7 12 -12 25 -13 29 0 3 -4 10 -9 15 -5 5 -6 -5 -2 -22z"/>
<path d="M1365 2041 c-4 -7 -2 -23 3 -34 6 -12 15 -37 20 -56 4 -19 14 -37 21
-39 10 -3 11 0 2 16 -6 12 -17 44 -24 73 -9 33 -17 48 -22 40z"/>
<path d="M1866 1959 c4 -71 16 -77 13 -6 -1 31 -6 57 -9 57 -4 0 -6 -23 -4
-51z"/>
<path d="M1972 1938 c2 -12 9 -23 16 -26 18 -6 15 35 -4 42 -11 4 -15 0 -12
-16z"/>
<path d="M1336 1893 c10 -41 19 -47 19 -11 0 17 -6 33 -13 36 -9 3 -11 -4 -6
-25z"/>
<path d="M0 1878 c0 -6 7 -20 17 -30 15 -17 15 -18 0 -18 -13 0 -17 -9 -17
-36 0 -40 18 -43 35 -6 13 30 25 28 25 -6 0 -15 4 -42 9 -60 11 -39 6 -40 -25
-7 -29 31 -44 32 -44 2 0 -25 42 -53 62 -41 7 4 8 2 4 -4 -10 -16 5 -14 28 3
24 18 40 96 18 87 -12 -4 -14 1 -10 21 3 15 1 27 -4 27 -12 0 -47 41 -48 56 0
21 -50 33 -50 12z"/>
<path d="M1858 1815 c2 -38 8 -74 13 -79 13 -14 10 40 -6 99 l-12 50 5 -70z"/>
<path d="M440 1805 c-14 -30 -28 -55 -32 -55 -4 0 -12 -9 -18 -21 -10 -19 -10
-20 9 -10 11 6 23 20 26 31 3 11 11 20 16 20 5 0 9 6 9 13 0 6 7 24 14 39 8
15 11 30 7 32 -4 3 -18 -20 -31 -49z"/>
<path d="M2740 1658 c0 -9 4 -19 9 -22 4 -3 11 -20 15 -38 4 -22 10 -28 16
-22 7 7 3 25 -15 55 -13 24 -25 36 -25 27z"/>
<path d="M0 1601 c0 -7 4 -17 10 -24 5 -7 68 -100 140 -207 72 -107 140 -206
151 -220 l20 -25 -12 25 c-6 14 -25 44 -40 67 -16 23 -29 46 -29 51 0 6 -4 12
-9 14 -14 5 -62 108 -56 119 4 5 1 8 -7 7 -7 -2 -12 5 -12 14 1 10 -2 16 -6
13 -5 -3 -11 -1 -15 5 -3 5 -1 10 6 10 6 0 0 12 -15 26 -14 15 -26 32 -26 38
0 11 -43 55 -82 85 -13 10 -18 10 -18 2z"/>
<path d="M1 1479 c-1 -84 0 -87 32 -122 17 -19 44 -50 59 -68 l28 -34 -18 40
c-9 22 -32 66 -49 98 -18 33 -34 71 -34 85 -1 15 -5 41 -9 57 -5 21 -8 5 -9
-56z"/>
<path d="M130 1500 c0 -5 4 -11 9 -15 6 -3 56 -82 111 -176 56 -94 104 -168
107 -165 5 4 -15 47 -26 56 -4 3 -22 34 -40 70 -19 36 -37 67 -40 70 -4 3 -12
18 -19 33 -19 45 5 22 45 -42 20 -31 53 -76 73 -101 42 -53 110 -148 110 -155
0 -3 -4 -5 -10 -5 -5 0 -10 7 -10 16 0 8 -4 13 -9 9 -6 -3 -15 3 -21 12 -10
16 -11 16 -4 -2 4 -11 8 -30 9 -42 1 -13 5 -26 8 -30 10 -9 9 -43 -2 -43 -11
0 -1 -51 14 -70 7 -8 31 -48 54 -88 24 -41 45 -71 48 -68 3 2 -9 30 -27 60
-42 75 -25 71 27 -7 30 -43 38 -64 30 -69 -8 -5 -5 -8 8 -8 19 -1 19 -1 1 -11
-27 -16 -50 -2 -145 87 -96 90 -209 221 -271 314 -63 96 -153 205 -157 193 -2
-6 22 -47 54 -91 32 -44 87 -126 123 -182 78 -122 150 -204 239 -271 44 -34
65 -57 66 -72 0 -16 8 -23 31 -28 32 -6 73 -31 129 -78 19 -16 23 -22 10 -17
-11 5 -65 25 -120 46 -55 21 -134 54 -176 74 -42 20 -83 34 -92 30 -8 -3 -26
2 -39 10 -14 9 -28 13 -32 9 -13 -14 -133 118 -161 178 -31 64 -46 74 -21 14
14 -33 14 -36 1 -25 -13 11 -15 6 -15 -38 0 -65 53 -169 127 -251 42 -47 73
-69 149 -106 53 -26 119 -54 148 -61 60 -16 77 -17 56 -4 -13 8 -13 10 1 10 9
0 22 -7 29 -15 7 -8 17 -15 23 -15 5 0 35 -21 65 -47 31 -27 53 -40 49 -30 -3
9 -2 17 4 17 10 0 62 -34 87 -58 7 -6 17 -12 21 -12 10 0 78 -88 111 -144 l23
-38 -24 7 c-13 4 -46 31 -74 60 -59 62 -110 96 -225 150 -47 22 -87 43 -90 46
-3 4 -36 21 -75 39 -38 17 -86 39 -105 48 -69 31 -177 111 -232 171 -31 33
-59 61 -62 61 -4 0 -6 -11 -6 -25 0 -29 77 -115 103 -115 9 0 17 -6 17 -14 0
-7 10 -20 23 -29 12 -8 35 -27 51 -42 16 -15 39 -28 52 -29 12 0 20 -6 18 -11
-3 -6 9 -18 26 -28 30 -18 41 -12 18 11 -9 9 -9 12 0 12 6 0 15 -6 19 -14 4
-8 10 -14 13 -14 12 2 80 -27 80 -34 0 -5 -13 -2 -30 7 -40 21 -61 20 -53 -2
6 -16 5 -16 -10 -4 -9 7 -17 10 -17 7 0 -4 -11 4 -25 17 -14 13 -49 32 -78 42
-29 10 -77 33 -108 51 -31 19 -62 34 -68 34 -6 0 -11 5 -11 10 0 6 -4 10 -10
10 -5 0 -10 -8 -10 -19 0 -17 40 -49 140 -110 l35 -21 -33 6 c-47 9 -39 -3 11
-17 74 -19 476 -233 463 -246 -3 -3 -117 45 -148 64 -5 2 -8 0 -8 -5 0 -4 37
-26 81 -47 84 -40 139 -78 139 -98 0 -6 -10 -1 -22 10 -32 29 -106 65 -126 61
-10 -2 6 -14 40 -30 31 -15 73 -43 93 -62 20 -20 38 -36 41 -36 3 0 2 20 -2
45 -4 31 -3 45 5 45 6 0 26 -20 43 -45 30 -42 58 -59 58 -34 0 8 6 7 18 -2 15
-13 16 -12 3 3 -7 10 -17 15 -22 12 -5 -3 -9 1 -9 9 0 8 -7 20 -15 27 -8 7
-15 17 -15 22 0 15 40 -12 72 -48 17 -19 35 -34 41 -34 7 0 7 4 -1 12 -21 21
-13 31 13 14 30 -20 46 -21 39 -1 -5 13 -34 28 -59 30 -12 1 -8 24 6 42 8 9
18 8 43 -2 19 -8 36 -11 40 -8 3 4 6 1 6 -5 0 -7 6 -12 13 -12 6 0 -6 18 -29
39 -41 39 -102 131 -87 131 5 0 15 -10 23 -21 8 -12 34 -46 58 -75 43 -53 62
-70 44 -38 -5 9 -7 24 -5 34 2 9 -3 22 -11 29 -9 8 -16 22 -16 32 0 13 -5 16
-16 12 -10 -4 -17 1 -21 16 -3 11 -9 18 -14 15 -5 -3 -9 1 -9 10 0 8 6 17 13
19 8 4 7 6 -4 6 -19 1 -73 50 -82 74 -7 18 8 24 18 7 4 -6 11 -8 16 -4 5 3 8
2 7 -3 -3 -12 25 -53 38 -53 6 0 11 7 11 15 0 8 -4 15 -9 15 -5 0 -6 5 -3 10
3 5 2 10 -2 10 -12 0 -34 38 -39 67 -3 14 -9 30 -15 36 -5 7 -20 28 -32 47
-17 26 -30 34 -48 33 -13 -1 -18 1 -11 4 10 4 8 11 -9 30 -20 20 -21 27 -11
44 11 17 10 24 -8 46 -11 14 -20 34 -20 44 0 10 -9 33 -20 51 -11 18 -20 43
-20 55 0 12 -4 25 -10 28 -5 3 -10 14 -10 23 0 18 -86 72 -114 72 -26 0 -18
-13 40 -60 34 -28 53 -51 52 -62 -2 -9 6 -24 17 -32 24 -17 18 -27 -12 -20
-11 3 -28 22 -37 42 -18 40 -94 125 -120 135 -12 5 -15 20 -14 67 1 33 5 60
10 60 4 0 8 -5 8 -12 0 -6 3 -8 7 -5 3 4 13 1 21 -5 16 -14 -35 90 -55 110 -7
7 -13 17 -13 21 0 4 -20 29 -45 55 -46 49 -49 55 -46 91 2 15 0 17 -7 6 -8
-11 -12 -10 -21 8 -7 12 -9 26 -6 31 3 5 0 7 -7 5 -8 -3 -26 11 -43 35 -17 22
-33 40 -37 40 -5 0 -8 6 -8 14 0 7 -8 20 -17 27 -15 12 -16 12 -8 -1 8 -13 7
-13 -9 -1 -11 10 -13 16 -6 21 6 4 -3 7 -19 8 -17 0 -31 -3 -31 -8z m-80 -666
c0 -22 134 -149 188 -177 58 -31 71 -30 19 2 -18 11 -44 30 -57 42 -14 12 -35
28 -47 36 -13 9 -23 20 -23 25 0 6 8 4 19 -3 96 -71 154 -106 209 -126 36 -13
67 -22 69 -20 1 2 -31 18 -72 37 -42 18 -74 35 -71 37 2 2 18 -3 36 -12 17 -9
37 -14 43 -12 7 3 1 9 -13 15 -14 6 -18 11 -10 11 22 1 54 -26 38 -31 -16 -6
78 -38 111 -38 14 0 63 -13 108 -29 61 -22 84 -26 93 -17 7 6 10 7 8 1 -3 -12
47 -76 54 -69 6 6 78 -75 78 -88 0 -5 4 -7 8 -4 4 2 9 -5 9 -16 2 -20 1 -20
-20 -2 -12 11 -39 38 -60 61 -45 49 -96 83 -123 83 -18 -1 -18 -1 1 -15 45
-32 173 -140 169 -144 -4 -5 -52 26 -79 52 -57 55 -121 94 -153 94 -18 0 -29
-3 -25 -7 42 -35 93 -70 102 -70 6 0 11 -7 11 -16 0 -11 -6 -14 -21 -9 -14 5
-25 2 -30 -6 -6 -11 -16 -7 -41 17 -31 29 -111 80 -152 97 -34 13 -9 19 34 7
80 -22 49 -3 -38 22 -52 15 -86 30 -84 38 1 6 -2 9 -8 5 -19 -12 -173 82 -226
137 -48 50 -84 107 -84 132 1 15 30 -24 30 -40z m629 -119 c7 -7 12 -18 9 -25
-2 -7 -17 1 -37 20 -29 28 -30 31 -9 25 12 -4 29 -13 37 -20z m-29 -53 c0 -9
-7 -8 -25 5 -13 10 -25 24 -25 31 0 9 7 8 25 -5 13 -10 25 -24 25 -31z m80
-44 c0 -4 -6 -8 -13 -8 -14 0 -39 35 -30 44 7 7 43 -23 43 -36z m-237 -292
c76 -24 148 -68 197 -121 14 -15 33 -31 43 -37 18 -9 18 -8 1 17 -31 47 -9 35
56 -30 67 -67 70 -80 11 -44 -25 15 -36 17 -41 9 -5 -9 -16 -3 -36 17 -60 61
-137 112 -253 169 -66 33 -120 64 -121 71 0 8 11 6 33 -7 18 -11 68 -31 110
-44z m-36 -45 c98 -48 167 -90 160 -98 -3 -3 -18 4 -34 14 -15 11 -71 41 -123
67 -52 27 -102 55 -110 63 -13 14 -13 14 5 5 11 -6 57 -29 102 -51z"/>
<path d="M399 1303 c6 -12 10 -28 9 -35 -2 -7 5 -12 15 -12 15 2 16 -1 5 -14
-7 -9 -8 -13 -2 -9 6 3 17 -5 24 -21 8 -16 14 -22 17 -14 7 18 -22 73 -53 102
-25 23 -26 24 -15 3z"/>
<path d="M140 1303 c0 -7 29 -51 65 -99 36 -48 64 -88 62 -90 -2 -2 -32 30
-67 71 -77 91 -94 92 -20 1 29 -35 52 -68 52 -73 -1 -11 29 -43 37 -40 4 1 40
-36 81 -83 84 -99 90 -104 67 -68 -9 15 -17 33 -18 40 -1 18 -90 140 -246 338
-8 9 -12 11 -13 3z"/>
<path d="M0 1244 c0 -19 11 -39 30 -58 17 -16 30 -38 30 -48 0 -10 7 -18 16
-18 8 0 12 -4 9 -10 -3 -5 -3 -16 2 -22 12 -20 12 -37 1 -45 -7 -4 -8 -1 -3 7
5 8 4 11 -3 6 -13 -8 -5 -34 20 -61 13 -13 15 -21 7 -24 -6 -2 -14 1 -18 6 -3
5 -14 13 -25 16 -10 4 -16 13 -13 21 4 9 -4 15 -24 18 -16 3 -29 1 -29 -3 0
-23 154 -190 192 -209 22 -11 22 -10 -2 12 -33 31 -90 107 -65 88 10 -8 33
-28 50 -45 55 -52 113 -97 186 -142 77 -48 81 -49 73 -28 -4 8 -10 15 -16 15
-5 0 -15 6 -22 13 -7 6 -25 21 -41 32 -63 45 -168 139 -184 166 -10 16 -20 27
-22 24 -3 -2 -5 5 -5 16 0 19 3 18 23 -7 20 -25 22 -26 16 -6 -3 12 -10 22
-15 22 -6 0 -7 7 -4 16 6 15 -39 105 -56 112 -5 2 -6 8 -3 13 6 9 -63 116 -89
138 -14 12 -16 10 -16 -15z"/>
<path d="M100 1246 c0 -9 47 -83 87 -136 66 -87 293 -306 293 -283 0 6 -37 45
-82 89 -158 152 -209 207 -265 291 -30 45 -33 49 -33 39z"/>
<path d="M2546 1220 c15 -14 86 -30 82 -19 -2 6 -6 10 -8 10 -3 0 -22 4 -44 9
-21 5 -35 5 -30 0z"/>
<path d="M2515 1060 c-8 -12 20 -24 35 -15 5 3 10 1 10 -6 0 -8 5 -8 16 2 15
12 14 14 -7 20 -36 10 -47 10 -54 -1z"/>
<path d="M1619 779 c-1 -45 -3 -57 -9 -39 -4 14 -5 37 -3 51 3 18 0 28 -11 32
-13 5 -15 3 -7 -12 6 -10 8 -21 5 -24 -11 -10 -4 -153 10 -227 14 -74 45 -165
53 -157 2 2 -1 17 -7 32 -16 43 -29 105 -21 105 4 0 18 -40 32 -90 16 -62 29
-90 39 -90 13 0 13 -1 0 -10 -13 -9 -13 -11 0 -20 8 -5 11 -10 5 -10 -5 0 -3
-5 5 -10 12 -8 11 -10 -6 -10 -14 0 -27 13 -43 45 -12 25 -26 45 -31 45 -4 0
-10 10 -13 22 -4 12 -9 20 -12 17 -11 -12 37 -119 54 -119 14 0 14 -2 1 -10
-17 -11 -10 -13 40 -11 29 1 32 0 17 -9 -9 -6 -21 -9 -25 -6 -4 2 -14 1 -22
-5 -12 -7 -11 -9 5 -10 19 0 19 -1 1 -8 -18 -7 -18 -8 -1 -25 16 -16 18 -16
36 0 13 12 19 13 19 4 0 -7 7 -10 15 -6 8 3 14 2 14 -2 -3 -17 2 -32 10 -32
15 0 19 35 4 48 -15 15 -17 32 -3 32 6 0 10 -7 10 -15 0 -9 8 -14 23 -12 13 1
21 -3 19 -11 -1 -6 7 -12 18 -12 13 0 20 -7 20 -20 0 -11 5 -20 11 -20 6 0 8
9 4 21 -5 15 -2 22 14 26 27 7 27 18 -1 37 -15 11 -25 12 -34 5 -9 -7 -14 -4
-20 13 -4 13 -8 27 -9 31 0 4 -7 12 -15 17 -11 7 -11 10 -2 10 7 0 10 5 6 11
-4 7 -11 6 -22 -5 -13 -12 -13 -18 -2 -30 10 -13 10 -16 -4 -16 -10 0 -14 4
-11 10 3 6 -4 10 -17 10 -21 1 -22 2 -5 14 15 12 16 14 2 20 -8 3 -15 10 -15
16 0 6 5 8 10 5 6 -3 10 -1 10 5 0 6 10 8 28 4 27 -7 27 -7 8 15 -11 11 -24
21 -30 21 -6 0 -5 -4 2 -9 11 -7 10 -10 -3 -15 -23 -8 -27 -8 -20 4 3 6 -4 14
-17 19 -17 7 -19 10 -5 10 9 1 17 6 17 12 0 5 -4 7 -10 4 -5 -3 -11 0 -11 7
-1 7 -2 20 -3 28 0 8 -7 14 -13 13 -7 -2 -12 0 -12 5 4 27 -3 62 -12 59 -6 -1
-14 4 -17 12 -2 8 0 11 6 7 13 -8 8 50 -8 99 -12 35 -9 87 2 55 3 -8 13 -46
22 -85 16 -74 44 -158 45 -138 1 6 -6 42 -15 80 -22 95 -24 103 -31 148 -6 43
-21 88 -22 68 -1 -7 -6 -13 -12 -13 -5 0 -8 3 -5 8 2 4 -2 16 -10 27 -13 17
-14 12 -15 -46z m181 -500 c3 -3 12 -9 20 -12 10 -4 8 -6 -7 -6 -13 -1 -23 3
-23 8 0 5 -9 11 -20 14 -11 3 -20 10 -20 16 0 11 37 -4 50 -20z"/>
<path d="M2500 832 c0 -11 60 -32 90 -32 36 0 11 20 -28 23 -18 1 -32 5 -32
10 0 4 -7 7 -15 7 -8 0 -15 -4 -15 -8z"/>
<path d="M1699 808 c-6 -22 -3 -46 4 -41 6 4 8 0 4 -10 -3 -10 -2 -17 3 -17 5
0 7 -9 5 -19 -2 -11 3 -25 10 -31 8 -6 11 -18 8 -27 -3 -8 0 -19 8 -24 10 -6
10 -9 2 -9 -10 0 -10 -6 -1 -25 6 -13 16 -23 22 -22 10 2 12 -3 15 -46 0 -10
6 -15 12 -12 6 4 10 1 8 -6 -3 -29 2 -39 19 -39 12 0 13 -3 4 -8 -9 -6 -8 -13
5 -28 21 -24 27 -44 13 -44 -6 0 -20 16 -31 35 -12 19 -27 35 -35 35 -8 0 -13
3 -13 8 4 24 -3 52 -12 52 -7 0 -9 -10 -4 -27 4 -16 8 -37 9 -47 0 -11 8 -22
16 -24 13 -5 13 -3 1 12 -12 14 -12 16 2 10 9 -3 19 -14 22 -25 4 -10 10 -19
15 -19 4 0 11 -11 14 -25 4 -14 11 -25 17 -25 8 0 7 5 -1 15 -10 12 -10 15 3
15 21 0 29 -38 8 -43 -13 -4 -13 -5 2 -6 26 -1 44 -22 42 -48 -1 -15 5 -23 21
-26 22 -4 26 7 11 31 -5 6 -6 16 -2 21 3 5 -4 13 -16 16 -13 5 -17 10 -11 14
8 5 6 19 -7 46 -10 22 -30 65 -45 96 -14 31 -26 59 -26 62 0 4 -10 30 -23 59
-13 29 -32 72 -42 96 -10 23 -22 42 -27 42 -4 0 -8 11 -8 24 0 14 -4 28 -10
31 -5 3 -10 5 -11 3z"/>
<path d="M1544 770 c-4 -16 -10 -30 -13 -30 -4 0 -15 -25 -25 -56 -10 -30 -24
-58 -33 -61 -12 -5 -12 -7 -1 -14 11 -7 10 -10 -1 -21 -12 -11 -13 -10 -6 2 5
10 5 12 -2 5 -19 -19 -24 -62 -8 -69 13 -5 20 5 16 27 0 4 4 7 10 7 5 0 7 5 4
10 -3 6 1 10 9 10 9 0 16 5 16 11 0 5 -4 7 -10 4 -5 -3 -10 -1 -10 4 0 6 9 11
21 11 15 0 19 -5 15 -15 -4 -11 1 -15 19 -15 14 0 25 4 25 10 0 5 -3 9 -7 9
-20 -3 -26 2 -13 11 11 7 12 10 2 10 -7 0 -20 7 -28 15 -14 13 -12 15 12 15
22 0 25 2 14 15 -7 8 -8 15 -3 15 5 0 9 10 8 22 -1 12 4 34 12 48 17 33 16 50
-2 50 -9 0 -18 -12 -21 -30z"/>
<path d="M1509 561 c11 -7 10 -10 -5 -14 -18 -4 -18 -5 -1 -6 10 0 17 -7 14
-13 -2 -7 -10 -12 -16 -10 -17 3 -13 -15 5 -22 8 -3 12 -2 9 4 -3 6 -1 10 4
10 6 0 11 -5 11 -10 0 -6 8 -5 20 2 19 12 19 13 -3 26 l-22 13 23 -4 c12 -3
22 -1 22 4 0 5 -10 9 -22 10 -22 1 -22 1 2 9 22 7 20 8 -15 9 -27 0 -35 -2
-26 -8z"/>
<path d="M1022 520 c2 -8 -3 -14 -9 -12 -7 1 -13 -4 -13 -12 0 -23 11 -46 22
-46 6 0 4 7 -3 16 -11 14 -10 18 6 30 15 11 16 16 6 27 -10 10 -12 9 -9 -3z"/>
<path d="M1435 507 c-5 -7 -10 -16 -10 -22 -1 -18 -17 -100 -22 -108 -2 -4
-14 -2 -26 4 -18 9 -20 9 -9 -2 6 -7 12 -29 12 -48 1 -20 7 -47 14 -61 10 -18
11 -30 4 -44 -7 -13 -7 -16 1 -12 7 4 10 -6 9 -29 -2 -44 29 -80 60 -71 28 9
74 54 67 66 -7 12 14 91 30 108 10 11 16 3 34 -38 26 -61 58 -97 73 -82 12 12
40 4 32 -9 -3 -5 0 -9 5 -9 14 0 14 17 1 25 -6 4 -8 10 -5 15 3 4 -2 10 -10
14 -8 3 -17 1 -20 -5 -11 -17 -22 -1 -35 48 -6 27 -17 55 -25 63 -15 17 -44
115 -43 145 1 35 -2 45 -13 45 -5 0 -7 -5 -3 -11 3 -6 -1 -10 -12 -9 -11 1
-28 1 -39 0 -20 -1 -20 -1 0 -9 11 -5 25 -6 31 -4 7 2 15 0 18 -5 3 -5 0 -10
-7 -9 -49 1 -58 -3 -47 -23 8 -15 8 -20 -2 -21 -7 0 -3 -5 10 -11 12 -6 22
-15 22 -20 0 -11 -14 -10 -27 3 -7 7 -10 4 -9 -11 0 -11 8 -25 16 -30 12 -8
12 -10 -5 -10 -18 -1 -19 -1 -2 -11 9 -5 17 -18 17 -27 0 -15 -2 -15 -10 -2
-7 11 -10 11 -10 2 0 -10 -5 -10 -20 -2 -12 7 -17 16 -13 27 4 11 3 14 -6 9
-12 -8 -8 22 10 72 12 31 12 32 -8 32 -9 0 -13 -3 -10 -7 4 -3 2 -12 -5 -20
-6 -7 -8 -16 -5 -20 4 -3 2 -14 -4 -25 -6 -11 -12 -34 -15 -50 -4 -34 -11 -45
-21 -35 -3 4 -2 23 4 42 8 25 8 35 -1 39 -6 2 -4 5 6 5 11 1 18 14 23 41 5 27
12 40 23 41 11 0 12 2 5 6 -18 7 -16 32 2 39 12 5 13 10 4 20 -14 17 -21 17
-34 1z m121 -109 c-2 -13 0 -28 5 -33 4 -6 4 -17 -2 -25 -6 -10 -11 -12 -16
-4 -5 6 -15 14 -23 17 -12 4 -11 6 3 6 11 1 18 8 16 19 -3 29 1 42 11 42 5 0
8 -10 6 -22z m-64 -124 c30 -15 31 -17 14 -30 -18 -13 -18 -32 -1 -79 5 -15 5
-17 -3 -5 -9 12 -14 12 -31 -5 -12 -10 -24 -16 -27 -12 -3 3 -3 34 2 69 4 35
7 66 6 71 -3 11 6 9 40 -9z"/>
<path d="M2899 439 c-10 -6 -10 -9 -1 -9 24 0 27 -1 47 -19 12 -11 27 -16 36
-12 13 4 6 11 -25 28 -28 14 -47 18 -57 12z"/>
<path d="M0 338 c0 -32 184 -219 247 -252 63 -31 142 -54 218 -61 33 -3 71 -8
83 -11 15 -3 21 -1 17 6 -3 5 -13 10 -21 10 -8 0 -25 6 -37 14 -12 8 -57 26
-100 40 -113 39 -271 141 -330 213 -10 12 -31 32 -47 43 l-30 21 0 -23z"/>
<path d="M70 317 c0 -3 35 -32 79 -65 89 -67 211 -137 256 -147 27 -6 26 -4
-12 20 -46 28 -54 37 -25 29 9 -2 6 1 -8 8 -14 7 -27 15 -30 19 -3 3 -17 9
-32 13 -16 3 -28 11 -28 17 0 8 5 7 15 -1 8 -7 15 -10 15 -7 0 3 25 -5 56 -19
89 -39 84 -23 -8 25 -46 24 -98 55 -116 68 -18 14 -50 26 -70 28 -20 2 -49 6
-64 10 -16 4 -28 5 -28 2z"/>
<path d="M2910 311 c0 -6 8 -11 19 -11 10 0 24 -7 31 -15 16 -19 40 -20 40 -1
0 8 -12 17 -27 20 -16 4 -36 9 -45 12 -10 3 -18 1 -18 -5z"/>
<path d="M2643 268 c12 -13 24 -20 25 -15 7 14 21 -4 15 -18 -4 -11 -1 -13 12
-8 16 5 14 10 -14 35 -38 34 -71 39 -38 6z"/>
<path d="M2714 282 c4 -7 14 -12 22 -12 8 0 14 -5 14 -11 0 -5 5 -7 10 -4 6 3
10 1 10 -4 0 -6 9 -11 19 -11 11 0 32 -7 48 -14 30 -16 65 -28 72 -26 2 1 7
-2 10 -7 3 -5 17 -4 31 4 24 12 24 13 3 13 -12 0 -34 5 -50 11 -15 6 -29 10
-31 10 -1 -1 -19 6 -40 15 -20 9 -48 20 -62 24 -14 4 -34 11 -44 16 -14 5 -17
4 -12 -4z"/>
<path d="M2 185 c1 -52 5 -76 15 -79 16 -6 18 -27 2 -24 -6 2 -14 -3 -16 -9
-6 -15 23 -17 32 -3 13 21 15 60 4 60 -7 0 -9 3 -6 7 4 3 2 12 -4 20 -6 7 -7
13 -2 13 16 0 33 -23 33 -46 0 -12 8 -25 18 -28 32 -13 82 -51 82 -63 0 -7 3
-12 8 -12 20 3 43 -2 38 -9 -2 -4 21 -8 52 -9 32 -1 50 0 42 4 -34 13 -119 70
-175 117 -76 65 -104 97 -105 119 0 9 -4 17 -10 17 -6 0 -9 -31 -8 -75z"/>
<path d="M1801 215 c0 -12 -6 -26 -12 -32 -8 -8 -6 -11 7 -10 10 1 19 -4 20
-10 1 -7 2 -19 3 -25 1 -8 5 -7 12 4 5 9 16 15 23 12 8 -3 17 -1 21 5 3 6 0 9
-8 5 -10 -3 -17 4 -22 23 -6 26 -7 27 -18 8 -11 -19 -12 -18 -18 10 -4 20 -7
23 -8 10z"/>
<path d="M2876 171 c14 -16 87 -52 92 -46 3 3 0 5 -6 5 -7 0 -12 6 -12 14 0 8
-11 17 -24 20 -13 3 -32 9 -43 12 -13 5 -15 4 -7 -5z"/>
<path d="M2900 90 c-11 -7 -8 -10 13 -15 15 -4 27 -10 27 -14 0 -4 14 -15 30
-24 23 -14 30 -15 30 -5 0 7 -17 22 -37 33 -21 11 -40 23 -43 27 -3 4 -12 3
-20 -2z"/>
<path d="M590 52 c0 -5 11 -15 25 -22 18 -10 22 -16 13 -22 -8 -5 -3 -8 16 -8
22 0 26 3 18 13 -16 18 -72 49 -72 39z"/>
</g>
</svg>
