<?xml version="1.0" standalone="no"?>
<!DOCTYPE svg PUBLIC "-//W3C//DTD SVG 20010904//EN"
 "http://www.w3.org/TR/2001/REC-SVG-20010904/DTD/svg10.dtd">
<svg version="1.0" xmlns="http://www.w3.org/2000/svg"
 width="1280.000000pt" height="904.000000pt" viewBox="0 0 1280.000000 904.000000"
 preserveAspectRatio="xMidYMid meet">
<metadata>
Created by potrace 1.15, written by Peter Selinger 2001-2017
</metadata>
<g transform="translate(0.000000,904.000000) scale(0.100000,-0.100000)"
fill="#000000" stroke="none">
<path d="M5090 8762 c-24 -20 -25 -20 -6 -41 19 -21 19 -21 -16 -21 -61 0 -77
-49 -23 -70 32 -12 34 -40 3 -33 -13 3 -27 9 -33 13 -5 3 -47 5 -92 4 -70 -2
-86 -5 -115 -27 -29 -22 -35 -24 -52 -12 -26 19 -43 57 -42 91 1 25 5 29 33
32 35 4 56 22 45 40 -5 7 -18 9 -37 4 -22 -6 -33 -4 -47 10 -21 21 -75 17
-115 -8 -12 -8 -31 -14 -42 -14 -11 0 -22 -4 -25 -9 -9 -14 35 -63 51 -57 9 4
13 1 10 -6 -4 -12 -17 -14 -61 -6 -10 2 -31 15 -47 29 -26 24 -35 26 -86 22
-32 -2 -66 -4 -75 -4 -10 0 -20 -4 -23 -8 -2 -5 -32 -6 -64 -4 l-60 5 -3 -47
c-4 -57 -25 -78 -60 -56 -19 12 -23 11 -33 -3 -7 -9 -17 -16 -24 -16 -19 0
-12 15 12 25 12 6 20 17 18 25 -2 8 -3 24 -3 34 2 37 -17 59 -46 51 -15 -3
-93 -10 -175 -14 -81 -5 -153 -13 -160 -18 -6 -6 -34 -16 -62 -23 -27 -7 -55
-17 -61 -22 -6 -4 -57 -13 -113 -18 -56 -5 -109 -14 -119 -19 -10 -5 -24 -6
-32 -1 -8 4 -28 6 -43 3 l-29 -6 46 -43 c49 -47 66 -54 66 -26 0 13 6 11 29
-13 16 -17 25 -34 20 -39 -4 -5 -4 -17 2 -28 8 -16 6 -18 -23 -19 -18 -1 -50
-3 -70 -5 -29 -2 -38 1 -38 12 0 8 5 12 10 9 6 -3 13 2 17 11 4 12 -1 22 -15
32 -12 8 -22 24 -22 36 0 41 -46 74 -79 57 -10 -6 -20 -8 -22 -6 -3 2 -124 7
-269 10 -146 3 -276 10 -290 15 -39 13 -109 19 -116 9 -3 -5 5 -10 18 -10 20
-1 21 -2 3 -6 -11 -3 -27 -11 -36 -19 -9 -8 -19 -10 -25 -5 -5 5 -18 11 -29
14 -13 3 -9 5 13 6 21 1 32 6 32 16 0 12 -15 15 -71 15 -42 0 -68 -4 -64 -10
13 -21 -9 -62 -50 -89 -37 -25 -52 -29 -99 -27 -56 3 -102 28 -90 48 7 11 -16
39 -27 33 -4 -3 -18 13 -31 35 l-23 40 -77 -3 c-42 -1 -74 -5 -72 -9 3 -4 -7
-10 -22 -14 -17 -4 -29 -2 -35 7 -4 7 -11 10 -16 6 -4 -4 -2 -17 5 -27 16 -26
15 -28 -9 -32 -34 -5 -47 -33 -25 -57 17 -18 17 -19 -3 -26 -38 -12 -85 -2
-114 24 -20 19 -27 21 -27 9 0 -34 -87 -107 -110 -93 -4 3 -13 -2 -20 -10 -7
-8 -16 -12 -21 -9 -5 3 -25 -7 -45 -23 l-37 -28 -16 24 c-9 14 -16 31 -16 40
0 8 -11 18 -25 21 -19 5 -24 12 -22 28 4 29 -7 28 -67 -7 -27 -16 -62 -31 -78
-33 -25 -3 -28 -7 -28 -37 0 -42 25 -62 55 -43 11 7 20 8 20 3 0 -17 -26 -29
-81 -35 -47 -6 -62 -4 -93 14 -20 12 -36 26 -36 32 0 5 -15 8 -33 6 -17 -2
-32 -8 -32 -15 0 -6 -3 -14 -7 -18 -4 -4 -4 -14 -1 -22 4 -11 0 -14 -13 -11
-12 2 -20 13 -22 30 -2 14 -10 29 -19 32 -10 4 -14 2 -10 -8 5 -12 -1 -14 -27
-12 -18 2 -39 7 -46 11 -8 5 -18 1 -26 -9 -12 -17 -13 -16 -23 3 -7 11 -8 33
-5 47 5 20 2 31 -11 40 -11 8 -18 25 -17 44 0 19 -4 30 -13 30 -9 0 -12 -8 -9
-25 2 -14 0 -25 -5 -25 -5 0 -11 10 -13 22 -4 32 -28 33 -72 3 -27 -18 -44
-24 -59 -18 -58 19 -65 9 -37 -54 11 -26 20 -63 18 -85 -1 -28 4 -44 22 -63
13 -14 20 -25 16 -25 -4 0 -18 12 -31 28 l-24 27 -1 -37 c0 -29 -4 -38 -17
-38 -40 -1 -75 -86 -48 -114 9 -9 14 -22 12 -29 -4 -9 -6 -9 -6 1 -2 25 -21
11 -21 -16 0 -16 -7 -52 -16 -82 -12 -39 -13 -59 -5 -76 6 -15 7 -34 0 -56
-16 -56 -11 -102 11 -116 22 -14 17 -37 -6 -28 -22 8 -29 -41 -15 -104 16 -71
40 -262 41 -322 0 -26 5 -50 10 -53 6 -3 10 -11 10 -16 0 -6 -4 -8 -9 -5 -5 3
-11 -25 -14 -62 -5 -64 -12 -119 -22 -172 -17 -88 -17 -92 4 -85 16 5 20 1 23
-27 3 -32 5 -33 51 -36 53 -3 56 -8 27 -44 -17 -23 -25 -25 -65 -20 l-46 5 6
-64 c4 -35 12 -82 17 -104 6 -22 11 -62 12 -90 1 -27 5 -56 9 -62 5 -8 30 -13
63 -13 48 0 56 3 66 25 6 14 19 25 28 25 9 0 21 5 28 12 9 9 12 7 12 -9 0 -12
-3 -28 -6 -37 -5 -14 -8 -14 -21 -1 -15 15 -38 11 -28 -5 3 -4 -3 -28 -12 -53
-17 -46 -30 -47 -46 -4 -4 10 -12 17 -19 16 -7 -1 -21 1 -30 5 -37 17 -53 3
-51 -44 l3 -45 -20 35 -20 35 6 -42 c4 -28 2 -48 -6 -58 -15 -18 -16 -83 -1
-98 6 -6 11 -18 11 -27 0 -24 35 -53 57 -46 10 3 23 16 28 28 6 14 17 22 28
20 10 -2 24 4 32 12 19 19 20 47 1 40 -23 -9 -28 13 -11 46 9 17 14 34 11 38
-3 4 -1 14 5 22 6 11 9 3 9 -25 0 -22 8 -53 18 -70 16 -25 18 -50 17 -160 -1
-90 -6 -138 -16 -155 l-14 -25 -3 23 c-4 25 -20 28 -46 9 -24 -18 -17 -51 12
-55 19 -3 21 -6 11 -18 -6 -8 -9 -17 -6 -21 4 -3 0 -11 -9 -17 -14 -10 -13
-14 5 -30 18 -17 24 -18 45 -6 30 16 56 7 56 -18 0 -11 10 -32 21 -47 18 -22
20 -29 8 -36 -8 -5 -17 -9 -21 -9 -5 0 -14 -15 -22 -32 -14 -32 -14 -32 -15
-7 -1 15 6 32 14 39 16 13 21 40 8 40 -5 0 -17 -7 -27 -15 -28 -21 -71 -19
-87 5 -9 12 -29 22 -52 25 -41 5 -41 4 -4 -49 17 -24 21 -46 21 -123 l1 -94
40 -35 c22 -19 49 -39 60 -45 15 -7 10 -8 -20 -3 -22 3 -47 12 -56 20 -26 23
-31 16 -25 -28 9 -58 10 -88 6 -187 -3 -80 -2 -85 19 -93 19 -6 24 -4 28 13 4
12 11 18 20 15 7 -3 16 1 19 9 4 8 13 15 21 15 12 0 14 -7 8 -32 -5 -18 -9
-58 -9 -88 -1 -30 -5 -61 -9 -68 -10 -15 -41 -16 -67 -2 -33 18 -32 -7 2 -34
19 -14 27 -26 18 -26 -11 0 -11 -3 -2 -12 24 -24 12 -31 -13 -8 -32 31 -41 20
-23 -27 9 -22 13 -56 10 -81 -4 -39 -2 -44 19 -49 21 -6 21 -7 4 -13 -16 -6
-19 -15 -16 -61 1 -30 7 -57 13 -60 13 -9 22 -119 10 -119 -14 0 -24 -91 -11
-106 7 -8 7 -19 1 -31 -9 -18 -16 -91 -14 -153 3 -87 7 -105 25 -108 24 -5 47
15 47 40 0 19 1 19 18 -2 15 -19 24 -21 51 -15 20 4 35 15 38 26 7 24 8 24 33
-1 11 -11 26 -20 34 -20 12 0 18 -16 30 -88 2 -13 8 -28 15 -35 6 -6 11 -18
11 -28 0 -9 9 -28 21 -43 11 -15 19 -33 16 -40 -3 -8 1 -23 9 -34 12 -17 12
-25 2 -41 -9 -15 -9 -26 -1 -44 13 -29 3 -50 -20 -41 -24 9 -47 -13 -48 -45
-1 -17 -3 -20 -6 -8 -5 18 -15 22 -26 10 -4 -3 -1 -13 5 -21 18 -21 19 -72 2
-72 -24 0 -26 -20 -4 -55 13 -21 30 -35 42 -35 13 0 18 5 15 13 -3 8 -2 20 3
27 6 10 14 10 39 -1 43 -19 37 -44 -12 -46 -21 0 -49 -4 -62 -7 -19 -5 -25 -2
-25 9 0 24 -31 31 -46 10 -16 -22 -18 -71 -4 -80 15 -9 12 -28 -3 -22 -26 10
-6 -43 24 -64 35 -24 35 -31 7 -69 -26 -36 -41 -39 -32 -6 6 27 -18 48 -68 60
-21 5 -30 2 -38 -13 -18 -34 -11 -65 21 -101 l32 -34 -32 -9 c-19 -4 -30 -13
-28 -20 3 -7 8 -11 13 -10 5 1 10 -13 11 -30 2 -23 -4 -37 -20 -49 l-22 -18
25 -20 c25 -20 18 -28 -10 -10 -11 7 -22 2 -41 -16 -24 -22 -26 -32 -23 -77 2
-28 9 -56 16 -62 7 -5 19 -22 25 -37 13 -29 36 -29 47 -2 8 20 -11 54 -28 54
-20 0 -27 27 -9 34 8 3 19 3 24 0 15 -9 38 16 32 34 -5 12 1 11 20 -7 14 -12
30 -20 36 -16 15 9 14 -59 0 -100 -10 -26 -9 -38 6 -69 19 -40 23 -98 6 -104
-25 -8 -62 -46 -57 -58 3 -7 1 -16 -4 -19 -6 -4 -10 -14 -10 -25 0 -10 -7 -21
-16 -24 -13 -5 -14 -9 -4 -21 7 -8 16 -12 21 -9 15 9 10 -8 -8 -28 -15 -17
-15 -20 5 -41 28 -30 29 -57 1 -57 -33 0 -80 -39 -77 -63 5 -37 -19 -29 -26 9
-6 32 -10 36 -32 31 -13 -2 -24 0 -24 4 0 5 -4 9 -10 9 -14 0 -12 -49 4 -85
10 -23 10 -37 0 -65 -13 -37 -8 -142 7 -172 5 -9 9 -33 9 -52 0 -40 20 -56 72
-56 30 -1 31 -2 16 -14 -23 -17 -23 -31 3 -54 18 -17 18 -20 4 -26 -9 -3 -25
-1 -35 4 -28 15 -30 13 -30 -25 0 -26 6 -39 25 -51 23 -15 25 -22 24 -81 -2
-68 0 -67 -57 -46 -17 7 -15 -27 4 -72 8 -20 13 -39 10 -42 -2 -3 0 -17 6 -32
5 -14 12 -82 15 -151 3 -69 9 -130 14 -136 5 -7 4 -22 -5 -40 -8 -16 -18 -56
-21 -89 -8 -70 6 -96 51 -99 16 -1 39 -7 52 -14 26 -15 62 -7 62 14 0 9 10 14
28 14 34 0 82 51 82 86 0 29 13 31 40 4 14 -14 18 -28 14 -44 -3 -15 5 -42 26
-81 17 -31 30 -58 28 -60 -2 -1 -20 0 -42 3 -23 3 -33 7 -26 12 9 6 7 13 -9
29 -22 22 -51 28 -51 11 0 -5 -9 -10 -20 -10 -30 0 -27 -54 5 -86 l26 -26 -31
7 c-28 6 -31 4 -41 -24 -12 -35 -35 -51 -71 -51 -28 0 -69 -27 -66 -43 3 -16
-36 -90 -56 -106 -21 -18 -20 -58 2 -70 21 -11 52 3 52 25 0 11 7 9 30 -8 17
-12 28 -28 26 -34 -3 -7 1 -17 8 -23 15 -13 51 9 51 31 0 7 11 15 25 16 14 2
33 11 43 20 16 14 18 14 31 -3 12 -16 16 -17 30 -6 14 12 16 11 16 -8 0 -11 9
-26 19 -33 15 -9 17 -15 8 -29 -8 -13 -6 -25 6 -50 14 -29 14 -34 2 -37 -8 -2
-15 -13 -15 -25 0 -17 -3 -19 -9 -8 -9 14 -31 7 -31 -10 0 -18 44 -48 61 -43
11 3 18 -3 22 -15 3 -14 17 -21 51 -26 52 -8 81 6 73 37 -3 10 -1 18 3 18 5 0
12 16 16 35 3 19 12 35 19 35 18 0 28 35 17 57 -14 27 -22 93 -11 93 5 0 9 11
9 24 0 14 10 30 24 39 35 24 39 71 9 136 -13 29 -22 56 -19 59 3 2 38 -12 79
-32 40 -20 79 -36 87 -36 20 0 85 -43 72 -48 -20 -6 -13 -31 13 -48 28 -18 55
-13 55 11 0 11 6 15 18 11 9 -2 33 -7 52 -11 19 -3 45 -11 57 -17 16 -8 35 -7
68 1 45 11 48 11 81 -19 33 -29 49 -34 86 -31 12 1 18 -9 23 -39 5 -30 11 -40
26 -40 10 0 19 -5 19 -11 0 -5 -5 -7 -12 -3 -8 5 -9 2 -5 -10 5 -14 3 -17 -8
-12 -24 9 -18 -25 10 -57 35 -40 68 -50 179 -53 l98 -4 -6 38 c-3 20 -9 73
-12 117 l-6 80 63 -5 c43 -3 64 -9 63 -17 -1 -7 -2 -25 -3 -40 l-3 -28 -7 25
c-10 36 -40 32 -62 -8 -14 -27 -15 -40 -7 -63 7 -20 15 -28 25 -25 8 3 17 6
19 6 3 0 9 12 14 26 6 14 15 22 21 19 6 -4 8 -14 5 -22 -6 -16 19 -73 33 -73
13 0 41 35 41 52 0 9 7 21 15 28 23 19 18 39 -15 58 -16 9 -30 20 -30 25 0 12
12 8 46 -18 18 -14 43 -26 56 -27 19 -3 22 1 20 19 -2 18 1 21 13 17 12 -5 14
-14 10 -35 -5 -21 -2 -30 13 -38 21 -11 34 -3 44 29 4 11 9 6 17 -14 l11 -28
22 27 c18 23 20 32 11 56 -10 25 -9 31 9 40 15 8 25 7 41 -5 122 -89 134 -102
95 -108 -21 -3 -23 -7 -20 -53 4 -58 20 -75 70 -75 31 0 34 2 27 23 -13 41
-17 77 -9 77 4 0 16 -8 26 -17 14 -13 21 -14 30 -5 19 19 36 14 40 -10 2 -12
9 -24 17 -26 11 -4 13 2 8 27 -4 17 -2 31 3 31 5 0 10 -12 12 -26 3 -31 28
-50 52 -41 13 5 14 11 4 32 -6 14 -9 27 -7 30 7 7 82 -17 100 -32 8 -7 23 -13
33 -13 13 0 16 5 10 22 -6 20 -5 21 9 9 9 -7 15 -17 12 -21 -10 -17 41 -58 83
-68 59 -14 102 1 102 34 0 30 8 30 54 -1 20 -14 47 -27 61 -31 15 -4 22 -11
18 -20 -6 -16 -49 -19 -58 -4 -16 26 -85 -4 -85 -37 0 -19 41 -63 58 -63 10 0
23 -9 30 -20 18 -29 36 -25 28 5 -4 14 -2 25 4 25 5 0 10 -5 10 -11 0 -7 11
-9 30 -6 37 8 47 -7 18 -28 -23 -16 -23 -16 -3 -31 22 -16 42 -13 37 6 -2 7 2
16 7 20 6 3 13 34 16 68 4 53 2 64 -16 80 -16 16 -17 21 -6 30 11 9 19 6 36
-12 13 -14 29 -22 37 -19 22 8 37 -7 23 -23 -6 -8 -9 -17 -6 -21 4 -3 2 -12
-3 -18 -13 -16 -2 -45 16 -45 8 0 14 -6 14 -13 0 -7 13 -21 30 -30 29 -17 29
-17 23 0 -3 10 -10 24 -16 31 -6 8 -6 12 2 12 8 0 9 5 2 19 -9 15 -7 17 12 14
18 -4 26 -16 36 -51 6 -26 21 -66 32 -88 20 -40 22 -42 81 -48 43 -5 63 -4 68
5 4 6 12 9 17 6 12 -8 53 20 53 36 0 7 -15 19 -32 26 -25 10 -29 15 -15 18 9
2 17 11 17 20 0 13 8 14 48 8 26 -4 53 -10 61 -15 7 -4 26 -1 41 7 30 14 217
13 252 -2 12 -5 20 -2 24 10 4 9 13 14 21 11 7 -3 42 6 77 21 36 14 70 23 78
19 7 -4 24 -13 38 -21 14 -8 50 -15 80 -15 48 0 57 -3 65 -22 6 -13 19 -25 30
-27 11 -2 24 -9 28 -17 4 -8 13 -14 18 -14 6 0 7 5 4 10 -9 15 20 41 32 29 5
-5 27 -18 49 -29 35 -18 40 -19 50 -5 9 13 19 14 46 7 44 -11 98 5 98 30 0 23
3 23 48 -7 30 -19 45 -23 80 -18 30 4 42 10 42 23 0 9 11 27 25 40 19 18 22
26 14 37 -9 10 -8 13 4 13 25 0 73 -22 60 -27 -7 -3 -13 -13 -13 -24 0 -10 -6
-19 -14 -19 -24 0 -37 -25 -23 -42 8 -11 38 -17 95 -21 75 -6 100 1 72 18 -13
8 -13 25 1 25 6 0 23 -9 39 -20 15 -11 30 -17 33 -13 4 3 26 8 49 10 24 3 53
11 66 19 12 8 27 12 33 9 15 -10 39 15 39 40 0 25 -49 94 -67 95 -7 0 -13 6
-13 14 0 17 -22 26 -61 26 -31 0 -41 19 -11 22 67 6 75 4 102 -23 37 -37 77
-39 90 -4 5 14 14 25 19 25 13 0 20 -37 9 -48 -18 -18 1 -48 41 -68 32 -15 37
-21 28 -35 -22 -35 22 -58 80 -43 20 6 21 11 16 58 -3 28 -10 60 -16 71 -9 18
-9 19 6 6 10 -7 17 -21 17 -30 0 -19 40 -61 58 -61 6 0 17 9 25 21 8 11 25 21
38 21 31 2 49 16 49 39 0 26 -19 33 -39 15 -19 -17 -32 -21 -29 -8 1 4 -3 17
-10 30 -9 16 -22 22 -47 22 -30 0 -35 3 -35 23 0 13 -12 34 -26 46 l-27 23 29
28 c27 25 29 25 32 8 2 -11 10 -22 17 -25 11 -4 12 -9 3 -23 -9 -14 -9 -22 2
-34 12 -15 14 -14 29 6 9 13 15 26 13 31 -3 11 26 8 48 -5 16 -10 24 -10 40 0
27 16 35 15 20 -4 -11 -12 -11 -18 2 -31 23 -22 41 -8 27 20 -12 21 -11 21 8
4 29 -25 36 -21 29 16 -5 29 -4 30 8 14 19 -25 60 -6 51 24 -5 14 -3 17 9 13
26 -10 4 39 -22 51 -29 13 -28 27 2 41 20 9 26 9 30 -3 8 -20 32 -10 28 11 -2
11 4 16 19 16 18 0 19 -2 9 -15 -7 -8 -10 -22 -6 -30 3 -8 1 -15 -5 -15 -6 0
-9 -12 -7 -27 2 -17 9 -28 19 -28 8 0 27 -8 42 -18 30 -20 77 -23 77 -5 0 7 7
2 16 -10 23 -34 98 -31 136 5 24 23 31 25 53 15 53 -24 112 -9 86 22 -14 17
11 30 27 14 18 -18 34 2 27 33 -6 25 -4 29 15 29 14 0 21 6 19 17 -3 37 2 51
20 56 13 3 22 -3 30 -19 8 -19 18 -24 45 -24 24 0 36 5 38 17 2 11 14 16 36
17 35 1 38 -4 20 -33 -9 -15 -9 -26 1 -48 l12 -28 -26 26 c-26 26 -28 26 -66
11 -43 -16 -50 -39 -21 -65 12 -11 33 -15 77 -12 52 2 60 5 57 21 -3 16 -2 16
13 4 15 -12 19 -12 31 5 8 10 17 16 20 12 4 -3 18 0 33 7 24 13 29 12 56 -10
34 -27 56 -29 121 -13 43 11 54 22 34 34 -5 3 -10 2 -10 -4 0 -6 -13 -3 -29 6
-23 14 -29 24 -29 55 -1 37 0 38 33 38 19 0 36 -4 40 -10 10 -17 35 1 35 26 0
16 -6 24 -17 25 -10 1 -22 2 -28 4 -5 1 -22 3 -37 3 -15 1 -42 16 -60 32 l-33
30 100 0 c125 -1 155 1 155 10 0 3 34 14 75 24 62 15 81 16 112 5 20 -6 50
-12 66 -11 27 1 28 0 13 -17 -9 -10 -16 -27 -16 -38 0 -27 38 -74 59 -72 40 4
55 -1 43 -13 -19 -19 -14 -28 18 -28 36 0 49 22 43 70 -4 29 -3 33 8 23 20
-20 51 -16 47 5 -2 9 -10 16 -16 14 -7 -1 -12 2 -12 8 0 5 7 10 15 10 17 0 20
23 5 51 -12 22 2 25 45 9 20 -7 25 -15 20 -29 -6 -20 16 -31 68 -31 24 0 31 6
44 40 11 26 22 40 34 40 10 0 49 11 86 25 72 26 85 26 59 0 -19 -19 -21 -46
-4 -63 9 -9 9 -12 0 -12 -18 0 -14 -25 7 -44 35 -32 126 -17 93 16 -8 8 -3 16
23 29 19 10 41 16 50 13 10 -4 15 0 15 10 0 10 -9 16 -24 16 -18 0 -25 6 -28
22 -2 13 -11 24 -23 27 -35 6 -48 41 -16 41 11 0 23 4 26 10 3 5 23 10 43 10
20 1 55 7 77 15 22 8 46 15 53 15 18 0 15 -41 -5 -55 -9 -7 -13 -17 -9 -23 9
-15 46 -16 46 -1 0 6 9 8 20 4 14 -4 20 -2 20 8 0 25 48 30 82 9 l29 -19 -26
-17 c-14 -9 -23 -21 -19 -27 3 -6 7 -22 9 -37 1 -14 13 -35 26 -45 21 -17 24
-18 27 -3 2 9 8 14 13 10 5 -3 7 -9 4 -14 -3 -4 2 -13 10 -20 12 -10 15 -10
15 2 0 8 -5 19 -12 26 -9 9 -9 15 -1 23 8 8 18 0 37 -30 30 -46 115 -97 124
-73 3 10 7 10 18 1 26 -21 44 -3 44 44 l0 44 35 -4 c24 -2 40 2 52 14 19 19
59 23 82 9 18 -11 -4 -26 -40 -26 -31 0 -52 -21 -43 -44 3 -9 1 -23 -6 -31
-10 -13 -10 -19 4 -33 9 -10 16 -26 16 -34 0 -25 22 -36 80 -40 l55 -3 3 33
c2 17 7 32 13 32 16 0 9 20 -16 46 -27 27 -25 44 5 44 10 0 32 8 49 17 40 23
48 12 20 -26 l-23 -31 23 -23 c21 -21 23 -21 35 -4 13 16 14 16 19 -3 4 -14
10 -18 24 -14 15 6 16 4 6 -7 -7 -7 -13 -19 -13 -26 0 -7 -9 -22 -21 -34 -15
-15 -19 -28 -14 -49 5 -22 2 -31 -14 -39 -13 -7 -22 -8 -26 -1 -15 24 -98 50
-130 40 -5 -1 -29 5 -52 15 -35 15 -42 23 -45 48 -4 38 -25 47 -37 15 -11 -26
-14 -18 -11 34 1 21 -3 38 -8 38 -18 0 -63 -53 -53 -63 6 -6 4 -15 -6 -25 -12
-13 -16 -13 -23 -1 -7 11 -10 10 -16 -4 -3 -9 -4 -23 -1 -31 3 -8 1 -17 -6
-19 -18 -6 12 -57 40 -70 18 -8 27 -6 42 7 19 17 21 17 55 -9 19 -14 36 -31
38 -35 2 -5 28 -9 58 -9 101 0 135 -2 153 -7 11 -4 17 0 17 10 0 18 55 23 65
6 3 -6 21 -10 38 -10 37 0 67 34 48 53 -19 19 -12 24 27 23 34 -1 39 3 58 39
11 22 26 51 34 65 l14 25 6 -30 c4 -25 11 -31 40 -36 19 -3 44 -10 54 -14 15
-7 18 -5 13 8 -5 13 0 15 30 10 l35 -6 -7 54 c-9 65 -28 91 -61 83 -23 -6 -23
-5 -13 25 14 38 35 55 26 20 -8 -30 29 -61 44 -38 6 10 10 10 23 0 23 -19 66
10 66 45 l0 26 18 -22 c23 -29 64 -19 79 18 l11 27 1 -27 c1 -18 11 -35 31
-50 17 -12 30 -28 30 -35 0 -9 -7 -7 -22 7 -30 28 -49 22 -63 -20 -8 -25 -19
-36 -36 -38 -35 -5 -49 -21 -49 -53 0 -35 26 -40 40 -6 8 21 9 21 9 1 1 -11
-4 -25 -9 -30 -18 -18 16 -40 35 -24 8 7 15 19 15 26 0 12 4 12 23 2 12 -7 23
-14 25 -15 2 -1 -6 -11 -18 -23 -16 -16 -19 -25 -10 -35 23 -27 184 41 195 83
4 17 11 22 22 18 55 -22 55 107 0 153 -10 8 -17 28 -17 48 0 33 2 35 28 30 17
-4 44 2 77 18 28 13 69 31 93 41 23 9 42 21 42 26 0 14 52 9 70 -7 9 -8 35
-16 58 -17 22 -1 40 -6 39 -11 -1 -5 7 -11 17 -13 49 -8 67 -16 115 -54 28
-22 53 -40 57 -40 20 0 73 -34 77 -50 3 -11 17 -25 32 -32 25 -11 29 -10 51
15 20 24 25 26 30 12 4 -9 4 -19 0 -22 -3 -3 0 -13 7 -21 10 -13 9 -15 -5 -9
-22 8 -39 -14 -31 -41 5 -20 91 -82 114 -82 6 0 8 -9 4 -19 -3 -11 1 -25 9
-34 14 -13 14 -16 1 -27 -18 -15 -20 -43 -2 -38 6 3 16 14 22 26 5 12 13 22
17 22 5 0 8 7 8 15 0 8 6 15 14 15 8 0 16 7 20 15 3 8 12 15 21 15 12 0 14 4
5 19 -18 35 -11 32 26 -9 28 -31 40 -38 50 -30 9 8 21 7 43 -5 30 -15 31 -15
37 9 3 14 2 31 -2 38 -5 7 -7 21 -6 30 2 10 -9 25 -25 35 -15 10 -29 28 -30
41 -3 21 0 22 35 16 48 -9 52 -11 52 -34 0 -25 69 -100 91 -100 21 0 34 16 19
25 -19 12 -10 35 14 35 13 0 26 4 28 10 3 9 54 3 126 -14 20 -4 91 -7 156 -5
11 0 28 4 38 10 27 15 85 1 91 -22 3 -10 17 -23 31 -29 15 -5 30 -20 35 -33
18 -45 41 -44 118 9 45 31 63 31 34 1 -18 -20 -19 -26 -8 -35 20 -17 88 4 94
29 6 23 23 15 23 -12 0 -23 25 -26 34 -4 3 9 31 27 61 40 40 18 55 30 55 44 0
11 -5 23 -11 26 -6 5 -4 11 7 19 16 12 15 14 -6 29 -28 20 -26 22 23 30 38 6
38 6 32 -24 -8 -34 10 -40 21 -7 3 12 19 39 35 61 38 52 52 103 36 128 -9 15
-9 23 1 39 6 11 12 29 12 40 0 13 7 20 20 20 16 0 20 7 20 34 0 19 3 41 6 49
8 21 -36 34 -50 15 -6 -8 -16 -13 -23 -11 -6 2 -14 -1 -18 -6 -4 -8 -12 -8
-27 0 -20 11 -20 11 5 37 13 15 27 35 31 46 5 13 12 17 29 11 39 -11 49 -10
61 8 8 13 8 23 -4 45 -15 25 -14 31 9 87 13 33 24 70 23 82 -1 12 3 25 8 28
13 8 13 61 0 86 -6 10 -19 19 -29 19 -12 0 -20 9 -23 25 -3 14 -1 25 3 25 16
0 9 47 -11 73 -20 25 -20 25 0 30 41 11 45 83 6 109 -16 11 -64 10 -71 -2 -11
-17 -25 0 -25 30 0 15 6 30 13 33 9 3 7 9 -5 24 -22 24 -23 44 -3 37 11 -5 13
-2 9 10 -4 10 -13 15 -22 11 -12 -4 -13 -3 -2 10 9 11 11 38 7 95 -3 44 -9 84
-12 89 -3 5 8 24 25 42 16 19 30 42 30 52 0 31 -30 79 -46 73 -26 -10 -15 32
18 64 28 28 30 34 19 52 -12 19 -11 20 15 15 38 -7 50 -1 75 39 21 35 18 59
-7 50 -11 -4 -10 0 2 19 22 33 3 59 -38 53 -15 -3 -28 -1 -28 4 0 4 -7 8 -15
8 -18 0 -18 9 -1 81 8 31 12 67 9 80 -2 13 1 38 7 54 l12 30 9 -24 c7 -17 15
-22 29 -18 12 3 20 0 20 -8 0 -13 21 -25 44 -25 17 0 37 45 30 65 -5 11 -15
14 -38 11 -29 -5 -32 -3 -31 22 0 20 -5 27 -17 26 -10 -1 -18 3 -18 9 0 6 -3
7 -6 4 -4 -4 -1 -13 6 -22 15 -18 1 -19 -22 -1 -21 15 -36 115 -31 191 3 28
-1 70 -7 95 -6 25 -17 83 -25 130 -7 47 -16 92 -19 100 -3 8 -10 63 -16 123
-5 59 -14 116 -19 126 -6 10 -12 30 -15 46 -3 15 -12 35 -20 44 -8 9 -19 28
-25 43 l-10 27 32 -19 c59 -36 89 -20 44 23 -55 52 -33 113 27 76 41 -25 66
-24 66 1 0 23 -40 43 -65 34 -8 -4 -15 -2 -15 4 0 6 5 12 12 14 7 3 0 20 -21
45 -23 28 -31 47 -27 61 9 26 -3 54 -20 48 -10 -4 -13 9 -13 54 0 32 -4 67
-10 78 -15 28 -14 79 2 85 10 4 10 7 0 18 -18 18 -16 30 3 22 12 -4 15 -1 12
13 -2 10 -10 18 -16 16 -14 -2 -15 8 -2 28 7 11 11 8 20 -15 l12 -30 19 24
c22 26 22 30 10 50 -8 13 -12 13 -27 0 -15 -13 -16 -12 -10 9 5 14 3 29 -4 37
-7 9 -8 15 -2 15 5 0 17 -11 26 -25 16 -25 56 -35 56 -15 0 6 -16 26 -35 45
-27 28 -41 35 -67 33 l-33 -3 -8 79 c-7 61 -6 81 4 87 8 4 17 1 24 -8 17 -22
38 -8 25 17 -13 24 -13 37 0 24 8 -8 23 -8 51 0 37 9 39 13 33 36 -4 14 -9 43
-10 66 -1 22 -11 63 -22 91 -19 49 -19 51 -1 74 20 26 24 75 9 99 -8 12 -10
10 -10 -10 -1 -24 -1 -24 -12 -5 -16 29 -16 29 -30 17 -10 -8 -13 -3 -11 21 1
18 2 33 2 35 1 1 9 -2 19 -7 21 -11 47 1 62 29 8 15 4 22 -25 40 -24 15 -44
20 -61 16 -17 -5 -23 -3 -19 4 8 13 -54 80 -73 80 -7 0 -24 -7 -37 -16 -15
-10 -25 -12 -25 -5 0 6 5 11 11 11 6 0 19 10 28 21 16 20 21 21 54 10 20 -7
41 -10 45 -7 5 3 17 -3 27 -14 25 -28 55 -26 55 3 1 12 7 33 14 47 10 18 11
30 4 44 -6 10 -7 36 -4 57 7 43 -9 129 -32 174 -8 17 -18 57 -21 90 -4 36 -11
60 -18 60 -19 0 -25 12 -18 36 6 17 9 19 16 8 15 -24 15 27 1 101 -6 27 -14
37 -37 43 -52 16 -59 23 -67 62 -11 53 -45 105 -69 105 -11 0 -32 12 -47 26
-24 24 -25 25 -4 14 31 -16 56 3 41 31 -7 15 -21 19 -59 19 -28 0 -50 5 -50
10 0 6 5 10 10 10 16 0 12 30 -5 36 -24 9 -19 44 6 44 15 0 19 4 15 16 -3 9
-6 18 -6 20 0 2 -7 4 -15 4 -8 0 -15 3 -15 8 -1 4 -2 49 -4 100 l-3 92 34 26
c24 18 33 33 33 55 0 17 6 32 15 35 8 4 15 14 15 24 0 10 7 23 15 30 20 17 30
77 16 106 -9 20 -8 30 4 47 13 20 13 25 0 45 -14 20 -13 25 25 74 22 29 41 64
42 78 0 14 2 36 2 50 3 46 15 52 41 22 21 -23 26 -25 35 -12 9 13 13 12 28 -6
23 -30 79 -22 92 12 11 29 2 57 -16 50 -7 -3 -16 -1 -19 4 -4 6 2 10 12 10 19
0 43 47 43 83 0 16 -3 16 -29 3 -27 -15 -28 -14 -23 9 3 19 -1 27 -19 34 -13
5 -20 10 -15 10 14 1 -35 41 -50 41 -24 0 -44 -12 -45 -29 0 -9 -9 9 -20 39
-12 34 -16 56 -9 58 5 2 10 9 10 16 0 7 12 35 26 64 22 45 24 57 16 96 -7 32
-6 50 4 67 7 13 13 34 14 47 1 59 47 101 78 70 17 -17 24 -5 13 24 -7 19 -5
27 10 36 10 7 26 12 35 12 15 0 15 2 -2 21 -19 21 -19 22 2 15 18 -6 25 0 43
37 18 37 21 58 18 121 -2 42 -1 78 1 81 8 7 13 40 17 107 4 51 2 58 -17 64
-13 4 -24 2 -26 -5 -2 -6 -8 -11 -14 -11 -6 0 -4 7 3 17 11 13 11 17 2 20 -7
3 -13 10 -13 17 0 8 -9 25 -20 39 -26 33 -25 37 10 37 24 0 33 -6 41 -27 l10
-26 19 21 c16 17 20 35 20 84 -1 59 -2 62 -16 43 -11 -14 -18 -16 -21 -7 -6
16 -42 15 -76 -3 -21 -11 -29 -11 -31 -2 -2 7 -8 28 -15 48 -6 19 -11 44 -11
55 1 18 1 18 11 2 16 -29 37 -21 65 23 23 37 29 41 60 37 37 -4 45 13 21 46
-16 21 -84 39 -90 22 -3 -8 -8 -8 -18 2 -21 19 -46 14 -68 -14 -27 -35 -26
-48 4 -62 14 -6 25 -16 25 -22 0 -6 -7 -6 -19 2 -15 9 -31 9 -75 -2 -31 -7
-56 -17 -56 -23 0 -5 -11 -6 -24 -3 -15 4 -26 1 -29 -7 -3 -9 -9 -9 -26 1 -31
18 -58 15 -75 -10 -25 -36 -92 -34 -138 3 -20 16 -41 29 -46 29 -6 0 -13 7
-16 16 -8 22 -8 26 4 19 20 -13 9 21 -16 48 -16 18 -33 27 -44 24 -10 -3 -32
4 -49 14 -39 24 -41 24 -42 -3 -1 -17 -2 -19 -6 -5 -5 20 -22 22 -57 6 -21
-10 -32 -8 -70 15 -24 14 -52 23 -60 20 -11 -4 -16 -1 -16 10 0 20 -39 21 -66
2 -13 -10 -23 -11 -31 -4 -16 13 -65 6 -70 -9 -3 -7 10 -21 27 -31 29 -18 30
-20 9 -25 -15 -4 -20 -11 -17 -25 5 -18 2 -19 -28 -11 -38 11 -124 5 -153 -10
-11 -6 -31 -11 -46 -11 -14 0 -28 -7 -31 -15 -3 -8 -16 -14 -27 -14 -12 1 -40
-2 -63 -6 -37 -6 -42 -5 -47 16 -7 27 9 40 39 33 12 -3 30 3 44 14 22 18 23
23 12 46 -10 23 -15 25 -33 15 -20 -10 -21 -9 -14 20 5 23 3 33 -9 37 -26 10
-46 -15 -46 -57 0 -22 -3 -38 -7 -38 -23 4 -33 -3 -33 -22 0 -18 -2 -20 -16
-8 -13 10 -17 10 -24 -1 -5 -9 -5 -19 1 -27 14 -16 -48 -33 -121 -33 -62 0
-130 -16 -130 -30 0 -6 -11 -10 -25 -10 -14 0 -25 -6 -25 -13 0 -7 -11 -23
-24 -35 -20 -17 -27 -18 -36 -7 -15 18 -55 24 -77 11 -10 -6 -31 -11 -48 -11
-27 0 -31 -4 -40 -40 -5 -22 -13 -43 -19 -47 -11 -7 -38 1 -48 16 -4 6 -12 5
-22 -4 -9 -7 -20 -10 -24 -6 -4 4 3 16 16 26 34 28 27 40 -23 40 -33 0 -45 4
-45 15 0 8 6 15 13 15 13 0 86 81 105 117 14 25 7 49 -15 57 -16 7 -33 -8 -52
-42 l-12 -22 -32 30 c-29 27 -38 29 -92 27 -46 -1 -60 -6 -60 -17 0 -12 10
-14 46 -12 35 3 49 -1 59 -15 12 -15 12 -16 0 -5 -33 29 -91 -4 -76 -44 4 -12
2 -12 -15 -4 -22 12 -49 -2 -49 -25 0 -16 -32 -77 -45 -87 -21 -15 -16 4 19
67 31 56 34 67 20 72 -9 3 -20 0 -24 -7 -7 -11 -12 -10 -25 3 -19 19 -47 22
-75 7 -13 -7 -30 -3 -66 16 -27 14 -53 30 -59 35 -5 5 -13 9 -17 9 -14 0 43
-79 60 -83 16 -4 16 -5 0 -6 -9 0 -31 17 -48 39 -35 45 -46 47 -114 24 -38
-13 -45 -19 -35 -30 9 -11 8 -19 -6 -34 -11 -12 -15 -28 -11 -43 7 -31 -3 -41
-21 -19 -9 10 -11 11 -7 2 7 -13 5 -13 -8 -2 -14 11 -22 11 -46 -2 -16 -8 -37
-26 -46 -40 -9 -15 -20 -26 -25 -26 -9 0 -22 31 -26 61 -4 30 -40 67 -69 73
-34 7 -45 1 -28 -16 18 -18 15 -46 -5 -44 -10 0 -18 -6 -18 -14 0 -10 10 -15
28 -15 15 1 27 -3 27 -7 0 -14 -61 -9 -96 8 -39 18 -64 13 -64 -14 0 -10 -11
-33 -25 -52 -14 -19 -23 -42 -20 -51 6 -18 -19 -34 -36 -23 -14 8 -59 -23 -59
-41 0 -8 -5 -15 -12 -15 -6 0 -22 -10 -35 -22 -23 -21 -23 -21 -45 -2 -12 10
-18 13 -14 7 4 -7 3 -13 -2 -13 -6 0 -12 6 -15 14 -4 9 -18 12 -47 10 -23 -2
-49 0 -59 5 -9 5 -28 3 -46 -5 -16 -7 -25 -13 -20 -14 6 0 2 -5 -7 -11 -10 -5
-18 -18 -18 -27 0 -25 -44 -62 -72 -62 -14 0 -33 9 -44 21 -16 17 -16 22 -4
29 8 6 18 10 23 10 4 0 7 13 7 30 0 30 -30 57 -50 45 -6 -3 -10 -1 -10 5 0 6
-11 15 -25 20 -14 5 -25 16 -25 25 0 8 -11 21 -25 27 -14 6 -25 20 -25 30 0
10 -11 24 -25 30 -14 6 -25 15 -25 21 0 5 16 0 36 -12 45 -27 54 -26 54 3 0
33 -23 49 -60 41 -18 -4 -30 -3 -30 3 0 24 -75 37 -275 48 -169 8 -215 7 -232
-7 -8 -7 -18 -8 -25 -2 -25 18 -88 34 -170 43 -103 12 -100 12 -93 0 3 -5 -1
-10 -10 -10 -26 0 -28 -25 -5 -71 16 -30 24 -38 30 -29 7 11 12 7 21 -13 7
-15 20 -27 29 -27 13 0 16 -6 13 -24 -3 -13 0 -33 6 -44 9 -17 21 -19 96 -20
69 -1 85 2 85 14 0 8 5 12 10 9 6 -3 10 -16 10 -29 0 -12 5 -27 11 -33 7 -7 2
-16 -18 -30 -57 -40 -91 -47 -109 -24 -7 9 -27 15 -44 16 -25 0 -34 5 -36 19
-5 32 -24 44 -31 18 -4 -17 -9 -20 -18 -12 -10 8 -16 7 -23 -6 -9 -16 -10 -15
-16 4 -4 13 -16 22 -27 22 -10 0 -19 7 -19 15 0 9 -8 14 -22 12 -17 -1 -23 3
-23 18 0 14 6 19 18 17 10 -2 21 7 29 23 16 35 3 42 -35 21 l-32 -17 28 23
c15 13 27 29 27 35 0 22 -23 26 -37 7 -11 -15 -17 -17 -33 -6 -25 15 -52 15
-69 0 -11 -11 -13 -9 -7 12 3 14 6 31 6 38 0 8 7 11 18 8 9 -3 25 1 36 9 27
20 9 69 -27 73 -22 3 -26 0 -20 -15 6 -15 4 -16 -9 -5 -11 9 -18 10 -23 2 -3
-5 -23 -10 -43 -10 -27 0 -41 -6 -50 -21 -8 -13 -19 -18 -31 -14 -28 9 -54
-22 -46 -54 4 -14 11 -28 16 -30 6 -2 1 -14 -11 -26 -19 -20 -26 -22 -49 -12
-30 12 -55 33 -30 24 24 -8 35 4 42 44 5 31 2 38 -19 50 -18 9 -27 10 -35 2
-6 -6 -19 -9 -28 -6 -9 2 -2 -7 14 -21 21 -18 25 -26 14 -26 -9 0 -24 9 -34
20 -12 14 -22 17 -30 10 -6 -5 -31 -8 -55 -5 -30 3 -57 -2 -87 -16 -39 -17
-42 -22 -33 -40 14 -24 55 -42 94 -40 28 1 28 1 13 -23 -15 -22 -15 -25 2 -40
25 -23 68 -34 135 -35 43 0 56 3 56 14 0 10 10 15 30 15 17 0 33 6 36 14 3 9
13 12 22 9 15 -6 15 -4 -1 14 -24 28 -13 49 26 50 18 0 42 4 55 8 16 5 22 4
22 -8 0 -9 5 -19 12 -23 8 -5 9 0 5 16 l-6 22 21 -21 c11 -12 26 -20 34 -17 7
3 16 1 19 -4 8 -12 -30 -31 -58 -29 -12 1 -42 1 -66 1 -38 -2 -43 -4 -38 -22
3 -11 2 -21 -1 -21 -4 -1 -16 -3 -27 -5 -50 -8 -59 -12 -77 -33 -10 -13 -18
-30 -18 -38 0 -8 -4 -11 -10 -8 -12 8 -66 -20 -78 -41 -8 -14 -15 -13 -72 5
-35 12 -80 21 -101 21 -21 0 -41 5 -44 10 -3 6 -21 10 -40 10 -19 0 -37 4 -40
10 -3 5 -39 8 -85 5 -72 -5 -78 -3 -73 13 2 10 -5 29 -16 43 -19 24 -20 24
-51 6 -30 -18 -59 -15 -31 3 8 4 11 15 7 25 -5 13 -9 15 -20 6 -10 -8 -15 -5
-24 14 -15 33 -35 32 -80 -5 -46 -37 -96 -49 -105 -26 -4 9 -16 16 -27 16 -12
0 -18 -4 -15 -10 3 -5 -10 -3 -29 5 -20 8 -58 15 -85 15 -43 0 -54 4 -80 33
-17 17 -31 41 -31 51 0 25 -47 86 -65 86 -17 0 -37 -34 -27 -45 4 -5 2 -5 -5
-2 -7 5 -9 22 -6 47 10 70 -54 124 -98 84 -11 -10 -19 -12 -19 -6 0 17 -25 15
-41 -4 -10 -13 -10 -17 2 -25 11 -7 10 -10 -8 -15 -13 -4 -23 -13 -23 -21 0
-9 -6 -12 -18 -9 -10 4 -38 0 -61 -9 -54 -19 -90 -5 -83 31 2 13 11 24 19 24
11 0 13 6 8 23 -4 12 -7 31 -6 41 0 11 -8 25 -17 32 -22 17 -112 44 -145 44
-30 0 -46 -18 -26 -30 10 -7 10 -12 1 -22 -9 -11 -9 -17 0 -26 22 -22 -35 -13
-61 9 -21 17 -22 22 -10 30 7 5 20 9 27 9 24 0 13 50 -13 62 -22 10 -28 8 -46
-10 -27 -30 -44 -28 -70 11 -12 17 -24 34 -26 36 -1 2 -9 -2 -17 -8 -12 -10
-22 -10 -48 4 -55 27 -109 30 -138 7z m4625 -342 c8 0 15 5 17 12 3 8 12 8 34
0 16 -6 24 -11 17 -11 -8 -1 -7 -10 4 -32 10 -21 12 -34 5 -41 -14 -14 -31 -2
-26 20 2 9 0 24 -6 32 -15 23 -28 -4 -23 -49 3 -34 3 -35 -12 -17 -8 11 -15
25 -15 32 0 6 -7 17 -15 24 -9 7 -14 19 -11 26 3 7 1 16 -4 19 -6 4 -10 12 -9
18 0 7 7 2 16 -10 8 -13 21 -23 28 -23z m-2555 -32 c-10 -4 -21 -12 -25 -18
-5 -7 -12 -2 -21 15 -19 37 -10 45 29 26 28 -13 31 -17 17 -23z m-5859 8 c9
-19 7 -29 -7 -51 -15 -23 -19 -24 -27 -10 -5 9 -6 22 -3 30 2 7 -2 19 -10 26
-12 10 -12 14 -2 20 22 15 38 10 49 -15z m8209 -63 c0 -12 -4 -23 -10 -23 -5
0 -10 11 -10 24 0 14 -4 28 -10 31 -5 3 -10 11 -10 17 0 6 9 3 20 -7 11 -10
20 -29 20 -42z m-2377 -32 c-2 -3 -9 1 -15 7 -7 7 -23 12 -37 12 -28 0 -18 16
14 22 18 3 48 -29 38 -41z m5080 -2366 c-3 -9 -8 -14 -10 -11 -3 3 -2 9 2 15
9 16 15 13 8 -4z m137 -1010 c-7 -8 -16 -12 -21 -9 -13 8 -1 24 18 24 13 0 13
-3 3 -15z m-55 -14 c-3 -6 -21 -11 -38 -10 l-32 0 35 13 c38 13 45 13 35 -3z
m65 -555 c0 -3 -4 -8 -10 -11 -5 -3 -10 -1 -10 4 0 6 5 11 10 11 6 0 10 -2 10
-4z m-11669 -1269 c-6 -6 -11 -19 -11 -29 0 -22 -7 -23 -26 -4 -18 19 -18 26
1 26 8 0 20 9 27 20 7 11 15 15 17 9 2 -6 -2 -16 -8 -22z m-22 -69 c4 7 12 7
20 3 11 -7 9 -11 -7 -20 -34 -18 -62 -14 -62 9 0 18 3 19 21 9 15 -8 24 -8 28
-1z m11834 -604 c-3 -8 -9 -14 -13 -14 -14 0 -21 17 -14 34 5 12 10 14 20 6 7
-7 10 -18 7 -26z m17 -78 c0 -3 -4 -8 -10 -11 -5 -3 -10 -1 -10 4 0 6 5 11 10
11 6 0 10 -2 10 -4z m-11918 -458 c-6 -6 -15 -8 -19 -4 -4 4 -1 11 7 16 19 12
27 3 12 -12z m466 -1218 c-27 -37 -61 -60 -87 -60 -11 0 -21 -5 -23 -11 -2 -6
-19 -17 -38 -24 -19 -7 -43 -16 -52 -20 -10 -4 -18 -3 -18 3 0 5 9 12 20 15
11 3 20 12 20 20 0 15 28 26 70 27 14 0 44 17 70 40 54 47 69 51 38 10z m9907
-139 c3 -5 1 -12 -5 -16 -5 -3 -10 1 -10 9 0 18 6 21 15 7z m-5520 -251 c-3
-5 -12 -10 -18 -10 -7 0 -6 4 3 10 19 12 23 12 15 0z m-640 -140 c-28 -12 -55
-12 -55 0 0 6 17 10 38 9 30 0 33 -2 17 -9z"/>
<path d="M11251 8751 c-7 -5 -9 -11 -5 -14 10 -5 54 9 54 18 0 8 -34 6 -49 -4z"/>
<path d="M11395 8740 c3 -5 11 -10 16 -10 6 0 7 5 4 10 -3 6 -11 10 -16 10 -6
0 -7 -4 -4 -10z"/>
<path d="M11260 8711 c-16 -32 37 -71 55 -41 4 6 11 8 16 5 5 -4 9 5 9 19 0
28 -15 43 -23 24 -4 -10 -6 -10 -6 0 -1 19 -39 14 -51 -7z"/>
<path d="M11225 8670 c3 -5 8 -10 11 -10 2 0 4 5 4 10 0 6 -5 10 -11 10 -5 0
-7 -4 -4 -10z"/>
<path d="M1685 8632 c-56 -6 -94 -63 -61 -91 11 -9 15 -7 19 9 3 13 17 22 36
26 60 12 65 62 6 56z"/>
<path d="M2111 8604 c13 -14 24 -33 24 -42 0 -11 10 -18 28 -20 34 -4 57 13
57 43 0 18 -9 24 -51 33 -78 18 -87 16 -58 -14z"/>
<path d="M5695 8620 c3 -5 8 -10 11 -10 2 0 4 5 4 10 0 6 -5 10 -11 10 -5 0
-7 -4 -4 -10z"/>
<path d="M2240 8595 c0 -20 37 -61 47 -52 3 4 8 20 10 37 3 27 0 30 -27 30
-20 0 -30 -5 -30 -15z"/>
<path d="M9457 8593 c-11 -10 -8 -81 3 -88 6 -4 19 -3 28 1 9 4 26 8 37 8 43
2 4 86 -40 86 -12 0 -25 -3 -28 -7z"/>
<path d="M7586 8558 c-49 -10 -52 -14 -36 -33 19 -23 47 -18 66 10 9 14 15 27
13 29 -2 1 -22 -1 -43 -6z"/>
<path d="M12507 8564 c-8 -8 1 -24 14 -24 5 0 9 7 9 15 0 15 -12 20 -23 9z"/>
<path d="M1655 8550 c-9 -15 13 -40 37 -40 14 0 19 6 16 23 -3 24 -41 36 -53
17z"/>
<path d="M5711 8541 c-15 -10 -8 -41 9 -41 15 0 25 29 14 40 -5 5 -15 5 -23 1z"/>
<path d="M9141 8533 c-6 -10 -11 -12 -11 -5 0 6 -5 12 -11 12 -6 0 -9 -14 -7
-32 2 -27 8 -34 29 -36 19 -2 31 4 43 23 10 15 15 33 12 41 -8 20 -43 18 -55
-3z"/>
<path d="M8877 8523 c-27 -27 28 -107 76 -110 16 0 27 4 27 12 0 19 27 38 35
25 10 -16 25 -12 25 8 -1 24 -24 52 -43 52 -9 0 -19 5 -22 10 -5 8 -11 7 -21
-1 -11 -9 -18 -9 -26 -1 -13 13 -41 16 -51 5z"/>
<path d="M1550 8506 c0 -8 5 -18 10 -21 6 -3 10 3 10 14 0 12 -4 21 -10 21 -5
0 -10 -6 -10 -14z"/>
<path d="M746 8494 c-7 -19 2 -37 15 -29 12 8 12 45 0 45 -5 0 -12 -7 -15 -16z"/>
<path d="M900 8442 c0 -14 11 -21 26 -15 8 3 11 9 8 14 -7 11 -34 12 -34 1z"/>
<path d="M6235 8430 c3 -5 8 -10 11 -10 2 0 4 5 4 10 0 6 -5 10 -11 10 -5 0
-7 -4 -4 -10z"/>
<path d="M8996 8404 c-25 -24 -17 -59 13 -59 31 0 50 28 35 52 -15 24 -29 26
-48 7z"/>
<path d="M7580 8321 c0 -5 5 -13 10 -16 6 -3 10 -2 10 4 0 5 -4 13 -10 16 -5
3 -10 2 -10 -4z"/>
<path d="M12551 8276 c-9 -11 -10 -20 -1 -35 16 -30 21 -26 18 14 -2 40 -2 40
-17 21z"/>
<path d="M12374 7655 c-3 -14 -11 -25 -17 -25 -7 0 -5 -6 3 -15 11 -10 24 -12
45 -7 35 10 45 40 19 59 -27 20 -43 16 -50 -12z"/>
<path d="M12447 7472 c-19 -20 -23 -52 -7 -52 18 0 10 -19 -11 -25 -15 -5 -20
-14 -18 -33 1 -15 -3 -39 -9 -54 -6 -15 -9 -34 -6 -42 8 -21 37 -24 51 -6 8
10 12 11 13 3 0 -15 30 -18 30 -4 0 5 -7 16 -15 25 -17 17 -20 36 -5 36 13 0
13 56 0 80 -12 22 -3 50 16 50 8 0 14 9 14 20 0 26 -31 27 -53 2z"/>
<path d="M12280 6985 c0 -33 16 -46 33 -29 6 7 -19 64 -28 64 -3 0 -5 -16 -5
-35z"/>
<path d="M12445 6960 c3 -5 8 -10 11 -10 2 0 4 5 4 10 0 6 -5 10 -11 10 -5 0
-7 -4 -4 -10z"/>
<path d="M12383 6849 c-9 -9 -9 -16 -2 -25 13 -15 62 3 56 20 -5 16 -40 19
-54 5z"/>
<path d="M12417 6813 c-14 -13 -6 -23 18 -23 16 0 25 6 25 15 0 15 -31 21 -43
8z"/>
<path d="M12420 6761 c0 -12 29 -35 36 -28 11 10 -5 37 -21 37 -8 0 -15 -4
-15 -9z"/>
<path d="M12204 6565 c-7 -18 3 -35 22 -35 8 0 14 10 14 25 0 27 -27 35 -36
10z"/>
<path d="M12232 6508 c6 -18 28 -21 28 -4 0 9 -7 16 -16 16 -9 0 -14 -5 -12
-12z"/>
<path d="M12186 6449 c-13 -26 -14 -39 -5 -75 6 -25 9 -58 6 -74 -5 -23 -2
-32 13 -40 19 -10 50 -4 50 10 0 4 -9 19 -20 33 -36 45 -20 66 51 67 47 0 69
52 27 65 -15 5 -26 1 -37 -14 -21 -27 -53 -19 -50 13 4 56 -11 62 -35 15z"/>
<path d="M12101 6452 c-15 -27 10 -50 29 -27 11 13 11 19 -2 32 -15 14 -17 13
-27 -5z"/>
<path d="M12134 6402 c6 -9 -29 -42 -44 -42 -15 0 -12 -37 5 -53 23 -23 69 -7
73 24 4 31 -14 79 -28 79 -6 0 -9 -4 -6 -8z"/>
<path d="M12272 6321 c-18 -11 -11 -45 9 -49 17 -3 29 23 22 46 -5 14 -13 15
-31 3z"/>
<path d="M12197 6189 c-18 -10 -18 -12 4 -35 38 -41 57 -30 43 24 -7 24 -19
27 -47 11z"/>
<path d="M418 6093 c-29 -8 -29 -33 -1 -61 19 -19 28 -23 31 -13 3 10 9 8 22
-9 11 -15 23 -21 34 -17 21 8 21 46 -1 55 -10 4 -18 16 -18 27 0 20 -30 29
-67 18z"/>
<path d="M12260 5981 c0 -6 5 -13 10 -16 6 -3 10 1 10 9 0 9 -4 16 -10 16 -5
0 -10 -4 -10 -9z"/>
<path d="M12310 5970 c0 -5 5 -10 11 -10 5 0 7 5 4 10 -3 6 -8 10 -11 10 -2 0
-4 -4 -4 -10z"/>
<path d="M12330 5900 c0 -11 4 -20 9 -20 5 0 7 9 4 20 -3 11 -7 20 -9 20 -2 0
-4 -9 -4 -20z"/>
<path d="M400 5760 c0 -11 7 -20 15 -20 17 0 18 2 9 24 -9 23 -24 20 -24 -4z"/>
<path d="M12410 5123 c0 -12 9 -27 20 -33 26 -14 26 1 0 31 l-19 24 -1 -22z"/>
<path d="M454 5046 c-10 -27 1 -51 25 -54 37 -6 44 11 18 41 -26 31 -35 33
-43 13z"/>
<path d="M460 4905 c0 -8 4 -15 10 -15 5 0 7 7 4 15 -4 8 -8 15 -10 15 -2 0
-4 -7 -4 -15z"/>
<path d="M12423 4583 c-19 -7 -15 -38 7 -58 26 -23 43 -9 38 31 -3 28 -20 38
-45 27z"/>
<path d="M12470 4475 c0 -8 4 -15 10 -15 5 0 7 7 4 15 -4 8 -8 15 -10 15 -2 0
-4 -7 -4 -15z"/>
<path d="M12453 4398 c-27 -13 -28 -21 -8 -38 21 -18 45 -5 45 25 0 27 -4 29
-37 13z"/>
<path d="M566 3841 c-41 -42 -30 -65 27 -56 66 10 77 15 77 34 0 15 -46 51
-67 51 -5 0 -22 -13 -37 -29z"/>
<path d="M12525 3860 c-7 -12 2 -30 16 -30 12 0 12 27 0 35 -5 3 -12 1 -16 -5z"/>
<path d="M572 3744 c-18 -12 -20 -19 -11 -36 7 -12 17 -18 29 -15 12 3 20 -2
23 -14 7 -28 45 -24 58 5 7 14 9 36 5 50 -7 29 -33 35 -43 11 -5 -14 -7 -14
-22 -1 -15 14 -19 14 -39 0z"/>
<path d="M12527 3730 c-10 -17 -16 -37 -14 -45 3 -7 3 -16 0 -19 -4 -3 -8 -18
-9 -33 -2 -15 -10 -31 -19 -36 -9 -5 -20 -20 -26 -34 -17 -46 46 -88 70 -46 9
17 11 16 30 -1 l21 -19 0 55 c0 30 -6 77 -14 104 -8 27 -16 62 -18 77 l-3 29
-18 -32z"/>
<path d="M12410 3721 c0 -27 26 -44 55 -37 32 8 32 34 -1 46 -38 15 -54 12
-54 -9z"/>
<path d="M570 3166 c0 -9 5 -16 10 -16 6 0 10 4 10 9 0 6 -4 13 -10 16 -5 3
-10 -1 -10 -9z"/>
<path d="M620 2828 c0 -16 19 -38 33 -38 4 0 7 10 5 22 -3 25 -38 39 -38 16z"/>
<path d="M502 2780 c0 -14 2 -19 5 -12 2 6 2 18 0 25 -3 6 -5 1 -5 -13z"/>
<path d="M500 2710 c0 -5 5 -10 11 -10 5 0 7 5 4 10 -3 6 -8 10 -11 10 -2 0
-4 -4 -4 -10z"/>
<path d="M555 2710 c3 -5 8 -10 11 -10 2 0 4 5 4 10 0 6 -5 10 -11 10 -5 0 -7
-4 -4 -10z"/>
<path d="M458 2535 c-10 -10 1 -88 13 -96 15 -9 39 0 39 15 0 51 -32 101 -52
81z"/>
<path d="M12543 2163 c-17 -6 -16 -25 0 -47 9 -13 20 -16 40 -11 31 8 35 25 9
48 -19 17 -28 19 -49 10z"/>
<path d="M12562 2081 c2 -7 7 -12 11 -12 12 1 9 15 -3 20 -7 2 -11 -2 -8 -8z"/>
<path d="M12571 1780 c1 -8 5 -26 9 -40 l8 -25 1 25 c0 14 -4 32 -9 40 -9 13
-10 13 -9 0z"/>
<path d="M12580 1006 c0 -8 5 -18 10 -21 6 -3 10 3 10 14 0 12 -4 21 -10 21
-5 0 -10 -6 -10 -14z"/>
<path d="M12550 996 c0 -9 5 -16 10 -16 6 0 10 4 10 9 0 6 -4 13 -10 16 -5 3
-10 -1 -10 -9z"/>
<path d="M627 813 c-11 -10 -8 -48 4 -60 11 -11 59 -5 59 8 0 4 -4 19 -10 33
-9 25 -38 35 -53 19z"/>
<path d="M570 800 c-8 -5 -12 -10 -10 -12 3 -2 18 -14 34 -28 l28 -25 -7 25
c-10 36 -27 51 -45 40z"/>
<path d="M8425 780 c-3 -6 1 -13 10 -16 19 -8 30 0 20 15 -8 14 -22 14 -30 1z"/>
<path d="M543 741 c-21 -33 22 -57 47 -26 10 12 10 18 0 30 -17 20 -33 19 -47
-4z"/>
<path d="M10518 733 c-10 -3 -18 -8 -18 -12 0 -5 -11 -6 -25 -3 -22 4 -25 1
-25 -26 0 -35 45 -75 83 -72 45 4 57 0 50 -16 -7 -20 34 -64 61 -64 41 1 74
48 46 65 -5 3 -10 15 -10 25 0 22 -28 53 -41 45 -5 -4 -9 3 -9 15 0 11 -6 22
-12 24 -7 2 -22 7 -33 12 -28 10 -47 12 -67 7z"/>
<path d="M500 696 c0 -29 10 -38 30 -26 11 7 12 14 4 27 -17 27 -34 27 -34 -1z"/>
<path d="M8402 684 c1 -9 9 -19 16 -22 9 -3 13 2 10 14 -1 9 -9 19 -16 22 -9
3 -13 -2 -10 -14z"/>
<path d="M10705 680 c3 -5 10 -10 16 -10 5 0 9 5 9 10 0 6 -7 10 -16 10 -8 0
-12 -4 -9 -10z"/>
<path d="M500 631 c-7 -13 -7 -22 0 -26 15 -9 30 4 30 26 0 25 -16 25 -30 0z"/>
<path d="M7690 578 c0 -9 5 -20 11 -23 17 -11 20 0 4 21 -13 17 -14 17 -15 2z"/>
<path d="M10857 573 c11 -31 43 -44 43 -18 0 8 -9 19 -19 25 -27 14 -31 13
-24 -7z"/>
<path d="M10326 565 c4 -8 13 -15 21 -15 13 0 13 3 3 15 -7 8 -16 15 -21 15
-5 0 -6 -7 -3 -15z"/>
<path d="M10285 560 c-4 -6 -2 -16 3 -23 5 -7 12 -25 16 -40 4 -19 12 -27 21
-24 7 3 19 -1 26 -9 21 -26 70 -47 81 -36 14 14 2 45 -13 36 -8 -5 -10 1 -6
18 9 34 -16 58 -32 31 -9 -16 -11 -16 -23 -3 -33 38 -66 61 -73 50z"/>
<path d="M1152 538 c-18 -24 -24 -59 -12 -73 7 -8 9 -26 6 -39 -5 -20 -1 -28
16 -37 25 -13 57 -48 58 -64 0 -5 -10 2 -23 16 -29 35 -93 47 -102 19 -8 -24
11 -60 31 -60 12 0 13 -4 3 -21 -9 -18 -8 -25 7 -39 27 -26 64 -29 78 -7 9 14
7 20 -6 28 -29 16 -21 27 17 24 40 -4 47 15 18 47 -9 11 -11 18 -5 18 16 0 15
25 -1 39 -10 7 -17 7 -24 0 -17 -17 -26 7 -12 32 8 16 8 27 -2 45 -7 13 -9 27
-6 31 4 3 7 1 7 -5 0 -7 5 -12 10 -12 14 0 13 43 -2 58 -16 16 -43 15 -56 0z"/>
<path d="M7328 526 c-5 -23 7 -46 23 -46 12 0 18 44 7 57 -16 19 -25 16 -30
-11z"/>
<path d="M8885 537 c-4 -10 -3 -23 4 -30 16 -16 26 0 14 25 -10 21 -11 22 -18
5z"/>
<path d="M10492 507 c3 -25 0 -37 -8 -37 -15 0 -37 -61 -26 -72 5 -5 23 -12
40 -18 29 -8 33 -6 47 20 8 16 15 39 15 50 0 13 8 24 20 27 40 11 19 45 -29
48 -14 1 -34 5 -45 10 -17 7 -18 4 -14 -28z"/>
<path d="M10865 530 c-4 -6 -3 -14 0 -20 9 -15 35 -12 35 4 0 17 -27 29 -35
16z"/>
<path d="M1646 504 c-19 -18 -19 -20 -6 -45 6 -10 20 -19 31 -19 11 0 33 -7
49 -15 29 -15 30 -14 36 9 9 36 -4 66 -33 77 -35 13 -59 11 -77 -7z"/>
<path d="M7392 498 c3 -7 17 -15 33 -16 25 -3 27 -2 16 12 -16 19 -55 22 -49
4z"/>
<path d="M9270 470 c0 -5 5 -10 11 -10 5 0 7 5 4 10 -3 6 -8 10 -11 10 -2 0
-4 -4 -4 -10z"/>
<path d="M12410 465 c0 -16 27 -32 37 -21 7 7 -16 36 -28 36 -5 0 -9 -7 -9
-15z"/>
<path d="M446 461 c-4 -7 -5 -15 -2 -18 9 -9 19 4 14 18 -4 11 -6 11 -12 0z"/>
<path d="M8826 454 c-19 -18 -17 -39 4 -39 20 0 37 32 24 45 -8 8 -16 7 -28
-6z"/>
<path d="M487 453 c-7 -11 11 -53 22 -53 21 0 41 13 41 26 0 8 -7 14 -15 14
-8 0 -15 5 -15 10 0 12 -27 14 -33 3z"/>
<path d="M1524 429 c-17 -19 -17 -23 -3 -47 10 -19 24 -28 48 -30 28 -3 33 -1
27 13 -4 13 -2 16 9 11 20 -7 45 3 45 19 0 7 -11 13 -26 13 -14 0 -35 9 -48
21 -27 26 -28 26 -52 0z"/>
<path d="M9874 434 c3 -8 6 -18 6 -20 0 -2 5 -4 10 -4 16 0 11 27 -6 34 -12 5
-15 2 -10 -10z"/>
<path d="M8880 422 c0 -13 39 -46 46 -39 9 9 -16 47 -31 47 -8 0 -15 -4 -15
-8z"/>
<path d="M10565 420 c-4 -6 -3 -16 3 -22 6 -6 12 -6 17 2 4 6 3 16 -3 22 -6 6
-12 6 -17 -2z"/>
<path d="M11450 420 c0 -5 6 -13 13 -17 8 -4 17 -16 20 -26 4 -10 11 -15 17
-12 15 9 12 35 -4 35 -8 0 -16 7 -20 15 -6 16 -26 21 -26 5z"/>
<path d="M2286 413 c-12 -12 -6 -33 9 -33 8 0 15 6 15 14 0 17 -14 28 -24 19z"/>
<path d="M11425 410 c3 -5 8 -10 11 -10 2 0 4 5 4 10 0 6 -5 10 -11 10 -5 0
-7 -4 -4 -10z"/>
<path d="M1259 381 c13 -17 27 -29 32 -25 14 8 -14 48 -36 53 -16 3 -15 -1 4
-28z"/>
<path d="M8852 398 c6 -18 28 -21 28 -4 0 9 -7 16 -16 16 -9 0 -14 -5 -12 -12z"/>
<path d="M9544 399 c-11 -18 9 -26 54 -21 35 3 41 7 31 18 -14 17 -75 19 -85
3z"/>
<path d="M11400 405 c0 -15 18 -40 24 -34 3 3 -1 14 -9 25 -8 10 -14 15 -15 9z"/>
<path d="M12272 397 c-8 -9 -8 -17 0 -27 8 -12 9 -12 4 3 -9 27 19 20 32 -8 6
-14 16 -25 22 -25 19 0 10 39 -12 54 -27 19 -33 20 -46 3z"/>
<path d="M9010 390 c0 -5 5 -10 11 -10 5 0 7 5 4 10 -3 6 -8 10 -11 10 -2 0
-4 -4 -4 -10z"/>
<path d="M12362 389 c2 -7 10 -15 17 -17 8 -3 12 1 9 9 -2 7 -10 15 -17 17 -8
3 -12 -1 -9 -9z"/>
<path d="M10920 375 c0 -10 -10 -15 -29 -15 -17 0 -32 -4 -35 -9 -6 -10 70
-32 79 -23 9 10 5 62 -5 62 -5 0 -10 -7 -10 -15z"/>
<path d="M1746 345 c4 -8 10 -15 15 -15 5 0 9 7 9 15 0 8 -7 15 -15 15 -9 0
-12 -6 -9 -15z"/>
<path d="M11610 340 c0 -5 5 -10 11 -10 5 0 7 5 4 10 -3 6 -8 10 -11 10 -2 0
-4 -4 -4 -10z"/>
<path d="M5976 323 c-4 -9 0 -23 8 -32 14 -13 16 -13 22 2 7 20 -1 47 -15 47
-5 0 -12 -8 -15 -17z"/>
<path d="M2860 301 c0 -5 9 -11 21 -14 16 -4 18 -3 8 9 -13 16 -29 19 -29 5z"/>
<path d="M510 290 c0 -5 7 -10 15 -10 8 0 15 5 15 10 0 6 -7 10 -15 10 -8 0
-15 -4 -15 -10z"/>
<path d="M1090 281 c0 -6 5 -13 10 -16 6 -3 10 1 10 9 0 9 -4 16 -10 16 -5 0
-10 -4 -10 -9z"/>
<path d="M2753 274 c-8 -20 8 -48 31 -52 17 -4 22 22 10 52 -8 21 -33 21 -41
0z"/>
<path d="M2710 260 c-9 -17 -6 -24 16 -45 15 -14 33 -25 41 -25 15 0 14 3 -23
58 -22 32 -23 32 -34 12z"/>
<path d="M4210 106 c0 -9 7 -16 16 -16 9 0 14 5 12 12 -6 18 -28 21 -28 4z"/>
<path d="M3363 93 c-20 -7 -15 -19 12 -31 25 -12 30 -6 19 22 -6 17 -11 18
-31 9z"/>
<path d="M4044 85 c-9 -23 14 -45 26 -25 5 8 8 19 7 24 -6 17 -27 18 -33 1z"/>
<path d="M4025 10 c3 -5 8 -10 11 -10 2 0 4 5 4 10 0 6 -5 10 -11 10 -5 0 -7
-4 -4 -10z"/>
</g>
</svg>
